<?xml version="1.0" encoding="utf-8"?>
<!-- Generator: Adobe Illustrator 25.4.1, SVG Export Plug-In . SVG Version: 6.00 Build 0)  -->
<svg version="1.1" id="Layer_1" xmlns="http://www.w3.org/2000/svg" xmlns:xlink="http://www.w3.org/1999/xlink" x="0px" y="0px"
	 width="300px" height="296.93px" viewBox="0 0 300 296.93" style="enable-background:new 0 0 300 296.93;" xml:space="preserve">
<style type="text/css">
	.st0{fill:#F5F5F5;}
	.st1{fill:#EBEBEB;}
	.st2{fill:#E0E0E0;}
	.st3{fill:#DE424A;}
	.st4{opacity:0.15;enable-background:new    ;}
	.st5{fill:#FFFFFF;}
	.st6{fill:#37474F;}
	.st7{fill:#455A64;}
	.st8{opacity:0.1;enable-background:new    ;}
	.st9{opacity:0.85;fill:#FFFFFF;enable-background:new    ;}
	.st10{opacity:0.6;fill:#FFFFFF;enable-background:new    ;}
	.st11{opacity:0.05;enable-background:new    ;}
	.st12{opacity:0.7;fill:#FFFFFF;enable-background:new    ;}
	.st13{opacity:0.6;}
	.st14{opacity:0.3;enable-background:new    ;}
	.st15{opacity:0.5;enable-background:new    ;}
	.st16{fill:#263238;}
	.st17{opacity:0.7;enable-background:new    ;}
	.st18{fill:#F0F0F0;}
	.st19{fill:#FAFAFA;}
	.st20{opacity:0.4;fill:#FFFFFF;enable-background:new    ;}
	.st21{fill:#E6E6E6;}
	.st22{opacity:0.5;fill:#455A64;enable-background:new    ;}
	.st23{opacity:0.5;}
	.st24{opacity:0.4;enable-background:new    ;}
	.st25{opacity:0.2;enable-background:new    ;}
	.st26{fill:#FFA8A7;}
	.st27{fill:#F28F8F;}
	.st28{fill:#B16668;}
</style>
<g id="freepik--Floor--inject-62">
	<ellipse id="freepik--floor--inject-62" class="st0" cx="150" cy="219.305" rx="150" ry="77.625"/>
</g>
<g id="freepik--Clouds--inject-62">
	<g id="freepik--clouds--inject-62">
		<path class="st1" d="M59.816,19.57l-5.73,3.308c0-0.256,0.05-0.506,0.05-0.755v-1.66c0-2.952-2.079-4.151-4.632-2.672
			c-1.103,0.672-2.044,1.577-2.759,2.653c-0.424-3.745-3.333-5.1-6.866-3.052c-3.833,2.203-6.954,7.578-6.954,11.997v2.497
			c-0.011,0.99,0.202,1.969,0.624,2.865l-4.763,2.746c-1.527,0.988-2.488,2.647-2.584,4.463c0,1.635,1.149,2.297,2.565,1.479
			l31.047-17.921c1.515-0.991,2.467-2.643,2.565-4.451C62.382,19.42,61.233,18.752,59.816,19.57z"/>
		<path class="st1" d="M87.381,31.972l-4.326,2.497c0.025-0.19,0.037-0.382,0.037-0.574v-1.248c0-2.228-1.56-3.121-3.495-2.016
			c-0.83,0.51-1.539,1.193-2.079,2.004c-0.318-2.803-2.497-3.845-5.187-2.303c-2.89,1.667-5.231,5.718-5.231,9.057v1.873
			c-0.017,0.748,0.135,1.49,0.443,2.172l-3.589,2.072c-1.146,0.745-1.867,1.993-1.941,3.358c0,1.248,0.868,1.735,1.941,1.117
			l23.426-13.526c1.146-0.745,1.867-1.993,1.941-3.358C89.322,31.866,88.479,31.348,87.381,31.972z"/>
	</g>
</g>
<g id="freepik--Shadows--inject-62">
	<ellipse id="freepik--Shadow--inject-62" class="st2" cx="242.1" cy="243.368" rx="30.767" ry="17.765"/>
	<path id="freepik--shadow--inject-62" class="st2" d="M43.219,260.671l-27.302-15.767c-1.542-0.886-1.542-2.328,0-3.215
		l152.778-88.105c1.752-0.887,3.822-0.887,5.574,0l27.308,15.767c1.536,0.886,1.536,2.328,0,3.215L48.793,260.671
		C47.041,261.557,44.971,261.557,43.219,260.671z"/>
	<path id="freepik--shadow--inject-62_00000121253156214729591360000015639940720789810077_" class="st2" d="M189.842,204.493
		l-3.364-1.96c-7.709-4.451-19.881-4.669-27.127-0.487l-12.709,7.322c-0.448,0.259-0.602,0.831-0.343,1.28
		c0.259,0.448,0.831,0.602,1.28,0.343l12.684-7.322c6.729-3.889,18.064-3.67,25.255,0.481l3.396,1.966
		c3.308,1.91,5.131,4.369,5.131,6.991c0,2.622-1.823,5.081-5.131,6.991l-46.496,26.84c-7.197,4.157-18.901,4.151-26.098,0
		l-13.545-7.809c-7.709-4.451-20.255-4.451-27.964,0l-3.396,1.947c-4.076,2.353-6.323,5.487-6.323,8.814
		c0,3.071,1.947,5.886,5.487,7.927l12.122,7.003l-4.994,2.94c-2.278,1.342-2.266,3.52,0,4.844l9.144,5.299
		c0.215,0.073,0.331,0.307,0.258,0.522c-0.041,0.121-0.136,0.217-0.258,0.258l-0.762,0.431c-0.375,0.212-0.375,0.562,0,0.78
		l1.18,0.68c0.425,0.219,0.93,0.219,1.354,0l4.132-2.372c0.427-0.212,0.928-0.212,1.354,0l7.49,4.369
		c0.424,0.213,0.924,0.213,1.348,0l1.186-0.687c0.375-0.212,0.375-0.562,0-0.78l-7.49-4.369c-0.375-0.218-0.375-0.568,0-0.78
		l2.884-1.667c0.423-0.219,0.925-0.219,1.348,0l7.528,4.338c0.423,0.219,0.925,0.219,1.348,0l1.198-0.724
		c0.215-0.073,0.331-0.307,0.258-0.522c-0.041-0.121-0.136-0.217-0.258-0.258l-7.49-4.369c-0.215-0.073-0.331-0.307-0.258-0.522
		c0.041-0.121,0.136-0.217,0.258-0.258l3.745-2.147c0.215-0.073,0.331-0.307,0.258-0.522c-0.041-0.121-0.136-0.217-0.258-0.258
		l-1.186-0.68c-0.425-0.219-0.93-0.219-1.354,0l-1.18,0.68c-0.427,0.212-0.928,0.212-1.354,0l-11.566-6.679
		c-1.166-0.596-2.548-0.596-3.714,0l-2.303,1.354c-0.079-0.103-0.176-0.189-0.287-0.256l-12.677-7.316
		c-2.934-1.698-4.55-3.932-4.55-6.311c0-2.597,1.966-5.218,5.387-7.191l3.396-1.966c7.197-4.151,18.901-4.151,26.091,0l13.47,7.884
		c7.715,4.451,20.255,4.451,27.97,0l46.496-26.84c3.914-2.26,6.067-5.318,6.067-8.614S193.756,206.747,189.842,204.493z"/>
</g>
<g id="freepik--Plant--inject-62">
	<g id="freepik--Plants--inject-62">
		<path class="st3" d="M253.535,242.55c-0.243-12.041,4.482-22.92,8.526-28.276c4.045-5.356,10.83-10.611,15.549-9.113
			c4.369,1.373,4.076,7.097-1.105,11.03c-5.181,3.932-12.989,8.901-15.124,15.524l-5.231,12.159L253.535,242.55z"/>
		<path class="st4" d="M253.535,242.55c-0.243-12.041,4.482-22.92,8.526-28.276c4.045-5.356,10.83-10.611,15.549-9.113
			c4.369,1.373,4.076,7.097-1.105,11.03c-5.181,3.932-12.989,8.901-15.124,15.524l-5.231,12.159L253.535,242.55z"/>
		<path class="st5" d="M254.971,241.402c0.131-0.018,0.235-0.119,0.256-0.25c1.124-6.666,3.358-14.356,7.153-20.424
			c4.082-6.517,9.987-10.518,13.445-11.897c0.15-0.061,0.222-0.231,0.162-0.381c-0.06-0.151-0.23-0.224-0.381-0.165
			c-0.002,0.001-0.004,0.002-0.006,0.003c-3.514,1.411-9.594,5.562-13.776,12.253c-3.814,6.092-6.048,13.813-7.178,20.517
			c-0.026,0.16,0.082,0.311,0.242,0.337c0,0,0.001,0,0.001,0L254.971,241.402z"/>
		<path class="st3" d="M257.886,245.166c0.587-2.285,3.258-6.105,7.653-9.319c4.862-3.552,11.092-5.293,12.484-7.996
			c1.654-3.246-1.124-6.192-6.198-5.424c-5.075,0.768-14.581,8.083-16.535,21.223L257.886,245.166z"/>
		<path class="st5" d="M256.837,242.813c0.115-0.011,0.213-0.09,0.25-0.2c3.901-11.916,12.79-16.304,16.947-16.959
			c0.16-0.026,0.269-0.177,0.243-0.337c-0.026-0.16-0.177-0.269-0.337-0.243c-4.594,0.724-13.433,5.193-17.415,17.353
			c-0.05,0.155,0.034,0.321,0.187,0.375C256.752,242.813,256.795,242.817,256.837,242.813z"/>
	</g>
</g>
<g id="freepik--Device--inject-62">
	<g id="freepik--Plug--inject-62">
		<path class="st6" d="M83.723,262.369c-0.164-0.001-0.325-0.044-0.468-0.125l-12.677-7.322c-3.539-2.041-5.487-4.856-5.487-7.927
			c0-3.333,2.247-6.46,6.323-8.814l3.396-1.966c7.709-4.451,20.255-4.451,27.964,0l13.539,7.821c7.197,4.151,18.901,4.151,26.098,0
			l46.496-26.84c3.308-1.91,5.131-4.369,5.131-6.997s-1.823-5.081-5.131-6.991l-3.396-1.96c-7.197-4.151-18.526-4.369-25.255-0.481
			l-12.677,7.316c-0.448,0.259-1.021,0.105-1.28-0.343c-0.259-0.448-0.105-1.021,0.343-1.28l12.677-7.316
			c7.247-4.188,19.419-3.97,27.127,0.481l3.396,1.966c3.914,2.253,6.067,5.312,6.067,8.608s-2.153,6.361-6.067,8.614l-46.496,26.84
			c-7.715,4.457-20.255,4.457-27.97,0l-13.539-7.815c-7.191-4.151-18.894-4.151-26.091,0l-3.396,1.991
			c-3.421,1.979-5.387,4.6-5.387,7.197c0,2.372,1.617,4.613,4.55,6.304l12.677,7.322c0.448,0.258,0.602,0.83,0.344,1.279
			c-0.167,0.291-0.477,0.47-0.812,0.469V262.369z"/>
		<path class="st6" d="M75.846,264.397v1.08c0.105,1.902,1.108,3.64,2.703,4.681l9.987,5.755l10.137-5.855v-8.782l-9.85-4.544
			c-1.796-0.714-3.812-0.623-5.537,0.25l-4.738,2.734C76.953,260.757,75.95,262.495,75.846,264.397z"/>
		<path class="st7" d="M88.823,256.732c-1.796-0.714-3.812-0.623-5.537,0.25l-4.738,2.734c-1.492,0.861-1.429,2.147,0.131,2.871
			l9.844,4.544l10.149-5.855L88.823,256.732z"/>
		<path class="st8" d="M87.568,265.015c-0.797,0.52-1.298,1.39-1.348,2.341v7.228l2.31,1.33l10.137-5.855v-8.782l-2.572-1.186
			L87.568,265.015z"/>
		<path class="st6" d="M99.534,259.766c-0.31-0.14-0.672-0.105-0.949,0.094l-9.987,5.761c-0.799,0.519-1.303,1.389-1.354,2.341
			v8.589c-0.036,0.342,0.117,0.677,0.399,0.874l1.248,0.73c0.311,0.147,0.678,0.111,0.955-0.094l9.987-5.755
			c0.796-0.522,1.296-1.391,1.348-2.341v-8.595c0.034-0.341-0.116-0.673-0.393-0.874L99.534,259.766z"/>
		<path class="st7" d="M89.878,266.351l9.987-5.761c0.743-0.431,1.348-0.081,1.348,0.78v8.595c-0.052,0.95-0.553,1.819-1.348,2.341
			l-9.987,5.755c-0.749,0.431-1.354,0.081-1.354-0.78v-8.589C88.575,267.74,89.078,266.87,89.878,266.351z"/>
		<path class="st3" d="M100.208,272.842l-8.252-4.763l-0.893,0.518v5.855l8.246,4.763c0.392,0.281,0.905,0.329,1.342,0.125
			l0.899-0.518c0.402-0.281,0.614-0.762,0.549-1.248v-1.486C102.019,274.768,101.317,273.564,100.208,272.842z M98.691,274.409
			c0.741,0.49,1.205,1.304,1.248,2.191c-0.001,0.118-0.015,0.235-0.044,0.35c-0.113-0.031-0.222-0.075-0.325-0.131
			c-0.74-0.494-1.203-1.309-1.248-2.197c0.001-0.12,0.015-0.239,0.044-0.356C98.481,274.299,98.59,274.347,98.691,274.409
			L98.691,274.409z"/>
		<path class="st9" d="M100.208,272.842l-8.252-4.763l-0.893,0.518l8.246,4.763c1.11,0.732,1.806,1.949,1.873,3.277v1.486
			c0.057,0.495-0.173,0.98-0.593,1.248h0.044l0.899-0.524c0.403-0.28,0.616-0.762,0.549-1.248v-1.486
			C102.009,274.788,101.314,273.575,100.208,272.842z"/>
		<path class="st3" d="M102.099,276.12v1.486c0.066,0.486-0.146,0.969-0.549,1.248l-0.899,0.524h-0.037
			c0.418-0.27,0.645-0.754,0.587-1.248v-1.473c-0.022-0.661-0.214-1.306-0.556-1.873l0.899-0.518
			C101.884,274.826,102.075,275.464,102.099,276.12z"/>
		<path class="st10" d="M102.099,276.12v1.486c0.066,0.486-0.146,0.969-0.549,1.248l-0.899,0.524h-0.037
			c0.418-0.27,0.645-0.754,0.587-1.248v-1.473c-0.022-0.661-0.214-1.306-0.556-1.873l0.899-0.518
			C101.884,274.826,102.075,275.464,102.099,276.12z"/>
		<path class="st11" d="M102.099,276.12v1.486c0.066,0.486-0.146,0.969-0.549,1.248l-0.899,0.524h-0.037
			c0.418-0.27,0.645-0.754,0.587-1.248v-1.473c-0.022-0.661-0.214-1.306-0.556-1.873l0.899-0.518
			C101.884,274.826,102.075,275.464,102.099,276.12z"/>
		<path class="st10" d="M98.323,274.621c0-0.12,0.015-0.239,0.044-0.356l0,0c-0.543-0.15-0.943,0.193-0.943,0.874
			c0.044,0.889,0.507,1.705,1.248,2.197c0.587,0.343,1.086,0.162,1.248-0.387c-0.115-0.026-0.224-0.07-0.325-0.131
			C98.845,276.332,98.372,275.515,98.323,274.621z"/>
		<path class="st8" d="M98.323,274.621c0-0.12,0.015-0.239,0.044-0.356l0,0c-0.543-0.15-0.943,0.193-0.943,0.874
			c0.044,0.889,0.507,1.705,1.248,2.197c0.587,0.343,1.086,0.162,1.248-0.387c-0.115-0.026-0.224-0.07-0.325-0.131
			C98.845,276.332,98.372,275.515,98.323,274.621z"/>
		<path class="st12" d="M99.309,273.361l-8.246-4.763v5.855l8.246,4.763c1.049,0.624,1.873,0.112,1.873-1.092v-1.467
			C101.124,275.321,100.427,274.094,99.309,273.361z M98.685,277.337c-0.74-0.494-1.203-1.309-1.248-2.197
			c0-0.811,0.568-1.136,1.248-0.73c0.741,0.49,1.205,1.304,1.248,2.191c0.025,0.811-0.543,1.136-1.242,0.737H98.685z"/>
		<path class="st3" d="M106.918,268.966l-8.246-4.763l-0.899,0.518v5.855l8.246,4.763c0.39,0.285,0.904,0.336,1.342,0.131
			l0.899-0.524c0.393-0.274,0.603-0.741,0.549-1.217v-1.486C108.738,270.912,108.036,269.694,106.918,268.966z M105.401,270.533
			c0.743,0.491,1.207,1.307,1.248,2.197c0,0.116-0.015,0.231-0.044,0.343c-0.115-0.026-0.224-0.07-0.325-0.131
			c-0.741-0.493-1.205-1.308-1.248-2.197c0-0.118,0.015-0.235,0.044-0.35C105.191,270.426,105.3,270.473,105.401,270.533z"/>
		<path class="st9" d="M106.918,268.966l-8.252-4.763l-0.893,0.518l8.246,4.763c1.11,0.732,1.806,1.949,1.873,3.277v1.486
			c0.057,0.495-0.173,0.98-0.593,1.248h0.044l0.899-0.524c0.393-0.274,0.603-0.741,0.549-1.217v-1.486
			C108.729,270.932,108.033,269.705,106.918,268.966z"/>
		<path class="st3" d="M108.809,272.243v1.486c0.054,0.476-0.157,0.943-0.549,1.217l-0.899,0.524h-0.037
			c0.418-0.27,0.645-0.754,0.587-1.248v-1.486c-0.022-0.661-0.214-1.306-0.556-1.873l0.899-0.518
			C108.601,270.919,108.792,271.573,108.809,272.243z"/>
		<path class="st10" d="M108.809,272.243v1.486c0.054,0.476-0.157,0.943-0.549,1.217l-0.899,0.524h-0.037
			c0.418-0.27,0.645-0.754,0.587-1.248v-1.486c-0.022-0.661-0.214-1.306-0.556-1.873l0.899-0.518
			C108.601,270.919,108.792,271.573,108.809,272.243z"/>
		<path class="st11" d="M108.809,272.243v1.486c0.054,0.476-0.157,0.943-0.549,1.217l-0.899,0.524h-0.037
			c0.418-0.27,0.645-0.754,0.587-1.248v-1.486c-0.022-0.661-0.214-1.306-0.556-1.873l0.899-0.518
			C108.601,270.919,108.792,271.573,108.809,272.243z"/>
		<path class="st10" d="M105.033,270.745c0-0.118,0.015-0.235,0.044-0.35l0,0c-0.537-0.15-0.943,0.187-0.943,0.868
			c0.044,0.889,0.507,1.705,1.248,2.197c0.587,0.343,1.086,0.162,1.248-0.387c-0.115-0.026-0.224-0.07-0.325-0.131
			C105.555,272.455,105.082,271.639,105.033,270.745z"/>
		<path class="st8" d="M105.033,270.745c0-0.118,0.015-0.235,0.044-0.35l0,0c-0.537-0.15-0.943,0.187-0.943,0.868
			c0.044,0.889,0.507,1.705,1.248,2.197c0.587,0.343,1.086,0.162,1.248-0.387c-0.115-0.026-0.224-0.07-0.325-0.131
			C105.555,272.455,105.082,271.639,105.033,270.745z"/>
		<path class="st12" d="M106.026,269.484l-8.252-4.763v5.855l8.246,4.763c1.049,0.624,1.873,0.119,1.873-1.092v-1.486
			C107.824,271.435,107.131,270.22,106.026,269.484z M105.401,273.46c-0.741-0.493-1.205-1.308-1.248-2.197
			c0-0.805,0.568-1.136,1.248-0.73c0.743,0.491,1.207,1.307,1.248,2.197C106.668,273.535,106.1,273.866,105.401,273.46z"/>
	</g>
	<g id="freepik--device--inject-62">
		<path class="st3" d="M135.325,236.171l23.47-13.576c2.422-1.392,3.633-3.227,3.633-5.056s0-3.265,0-3.265l-24.344-13.732
			c-1.381-0.9-2.25-2.405-2.341-4.051v-28.938l-40.997,23.719v28.944c0.087,1.644,0.955,3.147,2.334,4.045l20.736,11.91
			C122.642,238.961,130.488,238.961,135.325,236.171z"/>
		<g class="st13">
			<path d="M135.325,236.171l23.47-13.576c2.422-1.392,3.633-3.227,3.633-5.056s0-3.265,0-3.265l-24.344-13.732
				c-1.381-0.9-2.25-2.405-2.341-4.051v-28.938l-40.997,23.719v28.944c0.087,1.644,0.955,3.147,2.334,4.045l20.736,11.91
				C122.642,238.961,130.488,238.961,135.325,236.171z"/>
		</g>
		<path class="st14" d="M104.59,225.31v3.283l-7.49-4.332c-1.376-0.901-2.243-2.402-2.334-4.045v-28.969l7.79-4.475
			c0.156,1.979,0.337,4.032,0.499,6.03l-5.48,3.171v22.608c0.081,1.646,0.95,3.152,2.334,4.045L104.59,225.31z"/>
		<path class="st3" d="M97.574,218.556c0.087,1.644,0.955,3.147,2.334,4.045l17.908,10.305c4.838,2.79,12.684,2.796,17.527,0
			l23.482-13.57c4.837-2.79,4.837-7.322,0-10.118l-17.914-10.305c-1.379-0.901-2.247-2.406-2.334-4.051v-22.615L97.58,195.967
			L97.574,218.556z"/>
		<path class="st14" d="M97.574,218.556c0.087,1.644,0.955,3.147,2.334,4.045l17.908,10.305c4.838,2.79,12.684,2.796,17.527,0
			l23.482-13.57c4.837-2.79,4.837-7.322,0-10.118l-17.914-10.305c-1.379-0.901-2.247-2.406-2.334-4.051v-22.615L97.58,195.967
			L97.574,218.556z"/>
		<path class="st15" d="M145.668,201.659L145.668,201.659l-4.756-2.746c-1.379-0.901-2.247-2.406-2.334-4.051v-22.615L97.58,195.967
			v22.615c0.087,1.644,0.955,3.147,2.334,4.045l4.681,2.703L145.668,201.659z"/>
		<path class="st3" d="M162.434,214.274v3.265c0,1.835-1.248,3.658-3.633,5.062l-23.476,13.564c-2.572,1.376-5.447,2.09-8.364,2.079
			v-3.252c2.917,0.012,5.792-0.703,8.364-2.079l23.476-13.576C161.217,217.945,162.434,216.11,162.434,214.274z"/>
		<path class="st15" d="M162.434,214.274v3.265c0,1.835-1.248,3.658-3.633,5.062l-23.476,13.564
			c-2.572,1.376-5.447,2.09-8.364,2.079v-3.252c2.917,0.012,5.792-0.703,8.364-2.079l23.476-13.576
			C161.217,217.945,162.434,216.11,162.434,214.274z"/>
		<path class="st3" d="M31.74,246.695c1.796,0.872,3.9,0.832,5.661-0.106l158.545-91.544c1.61-0.93,2.915-3.196,2.915-2.559V8.078
			c0-4.369-1.248-6.579-2.74-7.453c-1.794-0.87-3.895-0.83-5.655,0.106L31.928,92.276c-1.726,1.122-2.811,3.001-2.921,5.056v144.37
			C29.061,243.709,30.079,245.567,31.74,246.695z"/>
		<path class="st3" d="M37.402,246.558l158.545-91.544c1.61-0.93,2.921-3.196,2.921-2.565V8.072c0-4.369-1.311-5.112-2.921-4.182
			L37.402,95.434c-1.726,1.122-2.811,3.001-2.921,5.056v144.376C34.48,246.732,35.791,247.488,37.402,246.558z"/>
		<path class="st15" d="M37.402,246.558l158.545-91.544c1.61-0.93,2.921-3.196,2.921-2.565V8.072c0-4.369-1.311-5.112-2.921-4.182
			L37.402,95.434c-1.726,1.122-2.811,3.001-2.921,5.056v144.376C34.48,246.732,35.791,247.488,37.402,246.558z"/>
		<path class="st3" d="M36.971,249.891c-1.677,0.723-3.586,0.682-5.231-0.112c-1.653-1.119-2.672-2.961-2.74-4.956v-9.188
			l5.48,3.171v9.182C34.48,249.685,35.56,250.44,36.971,249.891z"/>
		<path class="st15" d="M36.971,249.891c-1.677,0.723-3.586,0.682-5.231-0.112c-1.653-1.119-2.672-2.961-2.74-4.956v-9.188
			l5.48,3.171v9.182C34.48,249.685,35.56,250.44,36.971,249.891z"/>
		<path class="st3" d="M34.48,238.805v9.176c0,1.873,1.311,2.622,2.921,1.685l158.545-91.538c1.725-1.125,2.81-3.006,2.921-5.062
			v-9.201L34.48,238.805z"/>
		<path class="st14" d="M34.48,238.78v9.201c0,1.873,1.311,2.622,2.921,1.685l158.545-91.538c1.725-1.125,2.81-3.006,2.921-5.062
			v-9.201L34.48,238.78z"/>
		<path class="st3" d="M39.961,227.27V102.313c0.068-1.234,0.719-2.363,1.754-3.04L191.646,12.71
			c0.967-0.556,1.754-0.106,1.754,1.011V138.71c-0.068,1.233-0.72,2.359-1.754,3.034L41.715,228.288
			C40.747,228.843,39.961,228.387,39.961,227.27z"/>
		<path class="st16" d="M39.961,227.27V102.313c0.068-1.234,0.719-2.363,1.754-3.04L191.646,12.71
			c0.967-0.556,1.754-0.106,1.754,1.011V138.71c-0.068,1.233-0.72,2.359-1.754,3.034L41.715,228.288
			C40.747,228.843,39.961,228.387,39.961,227.27z"/>
		<path class="st17" d="M35.342,97.6c-0.519,0.878-0.815,1.871-0.861,2.89v138.315L29,235.634V97.332
			c0.038-1.018,0.332-2.01,0.855-2.884L35.342,97.6z"/>
		<path class="st14" d="M198.856,5.095c-0.206-1.504-1.423-2.047-2.896-1.205L37.414,95.434c-0.863,0.535-1.575,1.283-2.066,2.172
			l-5.48-3.165c0.495-0.886,1.206-1.634,2.066-2.172L190.485,0.763c1.762-0.939,3.866-0.978,5.661-0.106
			C197.646,1.677,198.633,3.294,198.856,5.095z"/>
	</g>
</g>
<g id="freepik--Window--inject-62">
	<g id="freepik--window--inject-62">
		<path class="st18" d="M55.023,234.885c-0.347,0.205-0.739,0.323-1.142,0.343c-0.574,0.075-1.158-0.027-1.673-0.293
			c-0.828-0.565-1.335-1.494-1.361-2.497V119.085l2.74,1.579v113.379c0,0.662,0.331,1.042,0.805,1.042
			C54.615,235.067,54.83,234.999,55.023,234.885z"/>
		<path class="st19" d="M205.722,146.2c-0.061,1.016-0.601,1.942-1.454,2.497L55.023,234.885c-0.799,0.462-1.448,0.087-1.448-0.843
			V111.245l4.001-2.31c0.799-0.462,2.104-7.49,2.909-7.983L95.19,80.915c0.805-0.462,2.697,4.75,3.495,4.282l107.037-61.795
			L205.722,146.2L205.722,146.2z"/>
		<path class="st2" d="M205.048,24.544V146.2c-0.056,0.782-0.468,1.495-1.117,1.935l-149.245,86.17
			c-0.092,0.059-0.197,0.095-0.306,0.106c-0.137,0-0.137-0.35-0.137-0.368V111.626l3.67-2.122c0.58-0.337,0.943-1.467,1.76-4.369
			c0.292-1.244,0.693-2.459,1.198-3.633l34.393-19.856c0.408,0.552,0.773,1.134,1.092,1.741c0.936,1.648,1.461,2.497,2.222,2.497
			c0.156,0,0.31-0.043,0.443-0.125L205.048,24.544 M95.52,81.49L95.52,81.49 M205.722,23.383L98.685,85.179
			c-0.032,0.02-0.069,0.03-0.106,0.031c-0.811,0-2.497-4.369-3.283-4.369c-0.035-0.009-0.071-0.009-0.106,0l-34.705,20.037
			c-0.805,0.468-2.11,7.49-2.909,7.983l-4.001,2.384v122.798c0,0.662,0.325,1.042,0.805,1.042c0.222-0.01,0.438-0.079,0.624-0.2
			l149.263-86.189c0.853-0.555,1.393-1.481,1.454-2.497V23.383z"/>
		<path class="st3" d="M52.208,115.708c-0.831-0.564-1.339-1.493-1.367-2.497v-11.329c0.058-1.012,0.59-1.937,1.436-2.497
			l149.245-86.139c1.27-0.805,2.951-0.428,3.756,0.842c0.297,0.469,0.444,1.019,0.42,1.574v11.317
			c-0.059,1.016-0.6,1.944-1.454,2.497l-149.22,86.182C54.146,116.121,53.101,116.14,52.208,115.708z"/>
		<path class="st20" d="M205.703,15.375c-0.1-0.755-0.712-1.03-1.436-0.624L55.023,100.94c-0.426,0.276-0.779,0.651-1.03,1.092
			l-2.728-1.579c0.244-0.433,0.592-0.8,1.011-1.067l149.245-86.139c1.262-0.804,2.936-0.434,3.741,0.828
			c0.258,0.405,0.404,0.871,0.423,1.351L205.703,15.375z"/>
		<path class="st8" d="M53.993,102.032c-0.26,0.433-0.404,0.925-0.418,1.429v17.234l-2.74-1.579v-17.234
			c-0.003-0.058-0.003-0.117,0-0.175c0.011-0.122,0.03-0.243,0.056-0.362c0.078-0.315,0.2-0.618,0.362-0.899L53.993,102.032z"/>
		<path class="st3" d="M205.716,15.606v7.777L98.679,85.179c-0.799,0.468-1.448,0.087-1.448-0.836v-2.946
			c0-0.924-0.624-1.305-1.461-0.836l-35.292,20.374c-0.853,0.555-1.392,1.481-1.454,2.497v2.94c-0.064,1.015-0.603,1.94-1.454,2.497
			l-3.995,2.378v-7.784c0.063-1.014,0.599-1.939,1.448-2.497l149.245-86.139C205.066,14.301,205.716,14.682,205.716,15.606z"/>
		<path class="st5" d="M198.899,20.481c1.011-0.581,1.829-0.106,1.829,1.061c-0.07,1.288-0.749,2.465-1.829,3.171
			c-1.011,0.581-1.835,0.106-1.835-1.061C197.137,22.363,197.818,21.186,198.899,20.481z"/>
		<path class="st5" d="M192.308,24.282c1.011-0.581,1.829-0.112,1.829,1.055c-0.068,1.288-0.748,2.467-1.829,3.171
			c-1.011,0.587-1.829,0.112-1.829-1.055C190.549,26.165,191.228,24.988,192.308,24.282z"/>
		<path class="st5" d="M185.716,28.084c1.011-0.587,1.829-0.112,1.829,1.055c-0.07,1.288-0.749,2.465-1.829,3.171
			c-1.011,0.581-1.829,0.112-1.829-1.055C183.956,29.966,184.635,28.788,185.716,28.084z"/>
		<path class="st21" d="M205.722,23.383v9.457L53.575,120.695v-9.45l2.99-1.729c0.799-0.462,1.067-1.167,1.448-2.497l1.017-3.52
			c0.318-1.248,0.624-2.054,1.454-2.497L95.19,80.965c0.805-0.462,1.436-0.512,2.047,0.499l1.248,2.26
			c0.456,0.786,0.687,1.248,1.486,0.786L205.722,23.383z"/>
		<polygon class="st2" points="53.575,111.232 53.575,120.695 50.834,119.116 50.834,109.666 		"/>
		<path class="st22" d="M60.247,111.919l-2.285,1.317l0.868-1.673c0.071-0.128,0.071-0.284,0-0.412
			c-0.069-0.081-0.181,0-0.262,0.125l-1.248,2.378l0,0c0,0,0,0.056-0.031,0.087s0,0,0,0c-0.003,0.039-0.003,0.079,0,0.119
			c-0.004,0.035-0.004,0.071,0,0.106l0,0c0.009,0.018,0.019,0.034,0.031,0.05l0,0l1.248,0.949c0.036,0.029,0.088,0.029,0.125,0
			c0.064-0.041,0.112-0.103,0.137-0.175c0.069-0.156,0.056-0.331,0-0.387l-0.868-0.674l2.285-1.317
			c0.118-0.094,0.184-0.237,0.181-0.387C60.428,111.938,60.347,111.869,60.247,111.919z"/>
		<path class="st22" d="M62.151,110.814l2.285-1.317l-0.874-0.668c-0.076-0.12-0.076-0.273,0-0.393
			c0.062-0.156,0.181-0.231,0.256-0.175l1.248,0.955l0,0c0.017,0.013,0.03,0.03,0.037,0.05l0,0c0.006,0.035,0.006,0.071,0,0.106
			c0.006,0.041,0.006,0.083,0,0.125l0,0l-0.037,0.094l0,0l-1.248,2.384c-0.024,0.057-0.066,0.105-0.119,0.137
			c-0.039,0.036-0.099,0.036-0.137,0c-0.072-0.126-0.072-0.28,0-0.406l0.874-1.673l-2.285,1.317c-0.1,0.056-0.181,0-0.181-0.175
			C61.976,111.035,62.042,110.903,62.151,110.814z"/>
		<path class="st22" d="M69.641,104.242c0-0.137-0.131-0.125-0.193,0l-0.312,0.768c-0.537-0.056-1.18,0.462-1.617,1.386
			c-0.568,1.198-0.568,2.615,0,3.158c0.282,0.264,0.712,0.29,1.024,0.062c0.457-0.308,0.815-0.741,1.03-1.248
			c0.07-0.124,0.07-0.276,0-0.399c-0.075-0.069-0.187,0-0.262,0.15c-0.424,0.893-1.111,1.292-1.529,0.886
			c-0.418-0.406-0.424-1.467,0-2.359c0.3-0.624,0.73-1.011,1.105-1.036l-0.231,0.58c-0.062,0.15,0,0.287,0.087,0.225l0.93-0.624
			c0.078-0.058,0.118-0.153,0.106-0.25L69.641,104.242z"/>
		<path class="st22" d="M94.185,85.222l0.836-1.76c0.096-0.171,0.096-0.379,0-0.549c-0.1-0.094-0.262,0-0.356,0.206l-0.836,1.76
			l-0.83-0.799c-0.1-0.094-0.256,0-0.356,0.206c-0.102,0.169-0.102,0.38,0,0.549l0.83,0.818l-0.83,1.76
			c-0.102,0.169-0.102,0.38,0,0.549c0.05,0.045,0.125,0.045,0.175,0c0.081-0.052,0.145-0.129,0.181-0.218l0.83-1.76l0.836,0.799
			c0.05,0.045,0.125,0.045,0.175,0c0.081-0.052,0.145-0.129,0.181-0.218c0.096-0.171,0.096-0.379,0-0.549L94.185,85.222z"/>
		<path class="st19" d="M72.675,106.407v-2.946c0.061-1.016,0.601-1.942,1.454-2.497l121.949-70.403
			c0.805-0.468,1.454-0.087,1.454,0.836v2.946c-0.061,1.016-0.601,1.942-1.454,2.497L74.123,107.244
			C73.324,107.712,72.675,107.331,72.675,106.407z"/>
		<path class="st2" d="M194.099,37.091c-0.043,0.007-0.088,0.007-0.131,0c-0.168-0.078-0.259-0.262-0.218-0.443l0.144-1.192
			l-0.562-0.406c-0.099-0.078-0.155-0.199-0.15-0.325c-0.005-0.196,0.083-0.384,0.237-0.506l0.855-0.662
			c0.017-0.02,0.03-0.044,0.037-0.069l0.381-1.248c0.048-0.21,0.218-0.371,0.431-0.406c0.144-0.016,0.282,0.065,0.337,0.2l0,0
			l0.318,0.68l0.724-0.275c0.132-0.059,0.288-0.023,0.381,0.087c0.121,0.177,0.121,0.41,0,0.587l-0.624,1.161
			c-0.003,0.023-0.003,0.046,0,0.069l0.15,1.049c0.023,0.194-0.046,0.389-0.187,0.524c-0.083,0.098-0.21,0.147-0.337,0.131
			l-0.668-0.106l-0.755,0.961C194.38,37.023,194.244,37.093,194.099,37.091z M193.687,34.656l0.562,0.406
			c0.118,0.097,0.175,0.249,0.15,0.399l-0.1,0.799l0.506-0.624c0.088-0.125,0.234-0.196,0.387-0.187l0.699,0.087
			c0.005-0.027,0.005-0.054,0-0.081l-0.15-1.049c-0.012-0.129,0.014-0.26,0.075-0.375l0.543-1.017l-0.518,0.206
			c-0.171,0.07-0.366-0.007-0.443-0.175l-0.25-0.537l-0.343,1.117c-0.036,0.126-0.11,0.237-0.212,0.318l-0.855,0.624
			C193.713,34.593,193.695,34.623,193.687,34.656z"/>
		<g class="st23">
			<path class="st7" d="M199.249,30.2c-0.276,0.008-0.506-0.209-0.514-0.485c-0.005-0.187,0.094-0.361,0.258-0.452l4.095-2.366
				c0.233-0.153,0.547-0.088,0.7,0.145c0.153,0.233,0.088,0.547-0.145,0.7c-0.016,0.01-0.032,0.02-0.049,0.028l-4.095,2.359
				C199.424,30.178,199.337,30.201,199.249,30.2z"/>
			<path class="st7" d="M199.249,32.597c-0.18,0.002-0.347-0.094-0.437-0.25c-0.138-0.242-0.058-0.55,0.181-0.693l4.095-2.359
				c0.241-0.141,0.551-0.061,0.692,0.18c0,0,0.001,0.001,0.001,0.001c0.139,0.238,0.058,0.544-0.18,0.683
				c-0.002,0.001-0.005,0.003-0.007,0.004l-4.095,2.366C199.424,32.574,199.337,32.598,199.249,32.597z"/>
			<path class="st7" d="M199.249,34.931c-0.279,0.001-0.506-0.225-0.507-0.504c-0.001-0.181,0.095-0.348,0.251-0.438l4.095-2.366
				c0.243-0.137,0.552-0.054,0.693,0.187c0.139,0.238,0.058,0.544-0.18,0.683c-0.002,0.001-0.005,0.003-0.007,0.004l-4.095,2.366
				C199.423,34.906,199.337,34.93,199.249,34.931z"/>
		</g>
		<g id="freepik--Search--inject-62">
			<g class="st23">
				<path class="st7" d="M58.062,123.342c-0.276,0.008-0.506-0.209-0.514-0.485c-0.005-0.187,0.094-0.361,0.258-0.452l4.095-2.366
					c0.249-0.126,0.553-0.026,0.679,0.223c0.116,0.23,0.041,0.51-0.174,0.651l-4.095,2.359
					C58.237,123.319,58.15,123.343,58.062,123.342z"/>
				<path class="st7" d="M58.062,125.708c-0.18,0.002-0.347-0.094-0.437-0.25c-0.141-0.241-0.061-0.551,0.18-0.692
					c0,0,0.001-0.001,0.001-0.001l4.095-2.359c0.238-0.14,0.544-0.061,0.684,0.176c0.001,0.002,0.002,0.003,0.003,0.005
					c0.141,0.241,0.061,0.551-0.18,0.692c0,0-0.001,0.001-0.001,0.001l-4.095,2.359C58.237,125.684,58.15,125.708,58.062,125.708z"
					/>
				<path class="st7" d="M58.062,128.098c-0.279,0.001-0.506-0.225-0.507-0.504c-0.001-0.181,0.095-0.348,0.251-0.438l4.095-2.359
					c0.233-0.141,0.536-0.067,0.677,0.165c0.003,0.005,0.006,0.01,0.009,0.016c0.14,0.238,0.061,0.544-0.176,0.684
					c-0.002,0.001-0.003,0.002-0.005,0.003l-4.095,2.366C58.236,128.072,58.15,128.096,58.062,128.098z"/>
			</g>
			<path class="st21" d="M94.378,102.506v3.627c0,0.743,0.524,1.042,1.167,0.674l48.643-28.126v-6.329l-48.637,28.126
				C94.859,100.927,94.423,101.681,94.378,102.506z"/>
			<path class="st3" d="M150.318,68.8c0.624-0.375,1.167-0.069,1.167,0.674V73.1c-0.046,0.821-0.479,1.572-1.167,2.022l-6.13,3.539
				v-6.311L150.318,68.8z"/>
			<path class="st19" d="M149.863,73.793l-0.68-0.218c0.069-0.288,0.105-0.584,0.106-0.88c0.064-0.563-0.173-1.118-0.624-1.461
				c-0.315-0.167-0.696-0.148-0.992,0.05c-0.883,0.677-1.39,1.734-1.367,2.846c-0.064,0.563,0.173,1.118,0.624,1.461
				c0.131,0.074,0.28,0.113,0.431,0.112c0.199-0.002,0.393-0.058,0.562-0.162c0.522-0.357,0.91-0.878,1.105-1.479l0.687,0.212
				c0.025,0.006,0.05,0.006,0.075,0c0.137,0.014,0.26-0.086,0.274-0.223c0.013-0.128-0.073-0.245-0.199-0.27V73.793z
				 M147.672,75.104c-0.144,0.105-0.333,0.121-0.493,0.044c-0.279-0.26-0.416-0.639-0.368-1.017
				c-0.014-0.93,0.395-1.816,1.111-2.409c0.094-0.057,0.202-0.089,0.312-0.094c0.064-0.002,0.127,0.015,0.181,0.05
				c0.279,0.26,0.416,0.639,0.368,1.017c0.012,0.928-0.397,1.811-1.111,2.403V75.104z"/>
			<path class="st3" d="M74.16,112.824l-7.022,4.039c-0.688,0.444-1.122,1.192-1.167,2.01v3.614c0,0.743,0.524,1.042,1.167,0.674
				l7.022-4.063c0.687-0.448,1.118-1.197,1.161-2.016v-3.589C75.321,112.756,74.803,112.45,74.16,112.824z"/>
			<path class="st3" d="M196.284,42.309c-1.613,1.054-2.629,2.813-2.734,4.738c0,1.748,1.248,2.453,2.734,1.585
				c1.617-1.055,2.634-2.816,2.74-4.744C199.024,42.14,197.795,41.435,196.284,42.309z"/>
			<path class="st5" d="M195.966,45.08c-0.085,0.001-0.169-0.02-0.243-0.062c-0.177-0.125-0.276-0.333-0.262-0.549
				c0.024-0.508,0.291-0.973,0.718-1.248l0,0c0.235-0.186,0.577-0.146,0.763,0.089c0.093,0.117,0.133,0.268,0.111,0.416
				c-0.027,0.508-0.296,0.973-0.724,1.248C196.218,45.039,196.093,45.076,195.966,45.08z"/>
			<path class="st5" d="M197.364,45.274c-0.31-0.155-0.679-0.126-0.961,0.075l-0.399,0.231c-0.735,0.466-1.2,1.259-1.248,2.129
				v0.287c0.497,0.215,1.07,0.153,1.511-0.162c0.63-0.392,1.15-0.937,1.511-1.585v-0.069
				C197.81,45.825,197.653,45.48,197.364,45.274z"/>
			<path class="st3" d="M186.603,50.773v-0.968c0-1.099-0.668-1.604-1.492-1.13l0,0c-0.925,0.661-1.48,1.722-1.498,2.859v0.868
				c-0.02,0.596-0.194,1.177-0.506,1.685l0,0c-0.077,0.133-0.12,0.283-0.125,0.437l0,0c0,0.281,0.169,0.406,0.375,0.287l3.502-2.016
				c0.231-0.17,0.37-0.437,0.375-0.724l0,0c0.008-0.11-0.033-0.217-0.112-0.293l0,0C186.761,51.579,186.556,51.182,186.603,50.773z"
				/>
			<path class="st3" d="M185.854,53.694c-0.009,0.545-0.275,1.054-0.718,1.373c-0.399,0.225-0.724,0-0.724-0.543L185.854,53.694z"/>
			<path class="st3" d="M173.694,55.367c0.191-0.113,0.404-0.185,0.624-0.212c0.173-0.02,0.348,0.015,0.499,0.1
				c0.147,0.09,0.262,0.223,0.331,0.381c0.081,0.217,0.113,0.449,0.094,0.68c0.002,0.21-0.021,0.42-0.069,0.624
				c-0.045,0.183-0.103,0.362-0.175,0.537c-0.068,0.164-0.145,0.325-0.231,0.481l-0.25,0.449c-0.075,0.144-0.15,0.293-0.212,0.437
				c-0.06,0.138-0.104,0.283-0.131,0.431c-0.006,0.071-0.023,0.14-0.05,0.206c-0.021,0.05-0.056,0.093-0.1,0.125l-0.705,0.406
				c-0.044,0-0.081,0-0.106,0c-0.036-0.039-0.054-0.091-0.05-0.144c-0.001-0.192,0.026-0.384,0.081-0.568
				c0.05-0.181,0.113-0.358,0.187-0.531c0.081-0.169,0.162-0.337,0.256-0.493c0.094-0.156,0.169-0.312,0.25-0.449
				c0.081-0.137,0.137-0.281,0.193-0.412c0.047-0.117,0.072-0.242,0.075-0.368c0-0.175-0.044-0.287-0.125-0.331
				s-0.218,0-0.393,0.075c-0.15,0.079-0.277,0.195-0.368,0.337c-0.069,0.112-0.125,0.231-0.169,0.356l-0.087,0.312
				c-0.02,0.085-0.071,0.158-0.144,0.206l-0.705,0.406c-0.026,0.019-0.061,0.019-0.087,0c-0.029-0.035-0.042-0.08-0.037-0.125
				c0.009-0.243,0.047-0.484,0.112-0.718c0.079-0.277,0.184-0.547,0.312-0.805c0.136-0.272,0.304-0.528,0.499-0.762
				C173.201,55.748,173.431,55.535,173.694,55.367z M174.194,61.135c0,0.067-0.015,0.133-0.044,0.193
				c-0.024,0.054-0.063,0.099-0.112,0.131l-0.724,0.418c-0.029,0.029-0.077,0.029-0.106,0c0,0,0,0,0,0
				c-0.036-0.039-0.054-0.091-0.05-0.144v-0.893c0.002-0.067,0.019-0.134,0.05-0.193c0.02-0.056,0.057-0.104,0.106-0.137
				l0.724-0.418c0.033-0.027,0.08-0.027,0.112,0c0.034,0.037,0.05,0.087,0.044,0.137V61.135z"/>
		</g>
	</g>
</g>
<g id="freepik--404--inject-62_00000135660278503034775740000010626295714964512134_">
	<g id="freepik--404--inject-62_00000135688928927814957340000002643163559795083709_">
		<g id="freepik--shadow--inject-62_00000080921970009099087720000013370316837897726655_">
			<path class="st2" d="M94.447,167.816c-0.574,0-1.125-0.224-1.536-0.624c-0.588-0.606-0.896-1.429-0.849-2.272V160.3
				l-12.322,7.122c-0.377,0.227-0.809,0.346-1.248,0.343c-0.572,0.002-1.122-0.222-1.529-0.624
				c-0.592-0.606-0.903-1.432-0.855-2.278v-7.615c-0.01-1.366,0.231-2.722,0.712-4.001l13.951-35.136
				c0.246-0.665,0.577-1.294,0.986-1.873c0.387-0.49,0.866-0.899,1.411-1.205l7.041-4.063c0.377-0.227,0.809-0.346,1.248-0.343
				c0.572,0,1.121,0.224,1.529,0.624c0.59,0.604,0.9,1.428,0.855,2.272v24.862l1.667-0.961c0.376-0.228,0.808-0.347,1.248-0.343
				c0.571,0.003,1.119,0.226,1.529,0.624c0.574,0.629,0.861,1.467,0.793,2.316v7.609c-0.004,0.777-0.183,1.543-0.524,2.241
				c-0.312,0.732-0.841,1.351-1.517,1.773l-3.227,1.873v6.417c-0.005,0.779-0.184,1.547-0.524,2.247
				c-0.312,0.732-0.842,1.351-1.517,1.773l-6.105,3.527C95.294,167.693,94.875,167.809,94.447,167.816z M90.152,146.3l2.141-1.248
				V140.9L90.152,146.3z"/>
			<path class="st2" d="M120.494,152.211h-0.375c-1.971-0.053-3.843-0.878-5.212-2.297c-1.411-1.547-2.398-3.433-2.865-5.474
				c-0.598-2.361-0.935-4.781-1.005-7.216c-0.062-1.929-0.094-4.051-0.094-6.317c0-2.266,0-4.475,0.094-6.567
				c0.102-2.771,0.432-5.529,0.986-8.246c0.551-2.748,1.418-5.423,2.584-7.971c1.142-2.513,2.611-4.863,4.369-6.991
				c1.806-2.171,3.986-4.001,6.435-5.406c2.459-1.423,4.582-2.11,6.498-2.11h0.375c1.97,0.059,3.839,0.883,5.212,2.297
				c1.408,1.549,2.395,3.434,2.865,5.474c0.597,2.361,0.934,4.781,1.005,7.216c0.062,2.066,0.094,4.238,0.094,6.467
				s0,4.369-0.094,6.417c-0.105,2.771-0.435,5.528-0.986,8.246c-0.557,2.745-1.426,5.417-2.59,7.965
				c-1.141,2.513-2.611,4.864-4.369,6.991c-1.808,2.171-3.987,4.003-6.435,5.412C124.533,151.518,122.404,152.211,120.494,152.211z
				 M128.316,109.372c-0.476,0.058-0.93,0.231-1.323,0.506c-0.721,0.41-1.357,0.955-1.873,1.604
				c-0.523,0.675-0.944,1.424-1.248,2.222c-0.346,0.904-0.597,1.841-0.749,2.796c-0.18,1.081-0.283,2.175-0.306,3.271
				c-0.156,4.026-0.156,8.04,0,11.96c0.018,0.971,0.112,1.94,0.281,2.896c0.071,0.53,0.258,1.037,0.549,1.486
				c0.098,0.157,0.265,0.259,0.449,0.275l0,0c0.489-0.047,0.958-0.219,1.361-0.499c0.72-0.414,1.355-0.961,1.873-1.61
				c0.537-0.683,0.972-1.439,1.292-2.247c0.353-0.89,0.605-1.818,0.749-2.765c0.16-1.086,0.254-2.18,0.281-3.277
				c0.125-4.088,0.125-8.115,0-11.966c-0.044-0.961-0.152-1.918-0.325-2.865c-0.079-0.544-0.268-1.067-0.556-1.536
				c-0.083-0.142-0.229-0.235-0.393-0.25L128.316,109.372z"/>
			<path class="st2" d="M162.902,128.292c-0.574,0-1.125-0.224-1.536-0.624c-0.588-0.606-0.896-1.429-0.849-2.272v-4.619
				l-12.347,7.128c-0.365,0.222-0.784,0.34-1.211,0.343c-0.574,0.003-1.126-0.221-1.536-0.624c-0.589-0.605-0.896-1.429-0.849-2.272
				v-7.634c-0.012-1.358,0.227-2.706,0.705-3.976l13.944-35.123c0.244-0.664,0.573-1.294,0.98-1.873
				c0.389-0.488,0.868-0.897,1.411-1.205l7.041-4.063c0.377-0.226,0.809-0.345,1.248-0.343c0.572-0.002,1.122,0.222,1.529,0.624
				c0.59,0.604,0.9,1.428,0.855,2.272v24.862l1.673-0.961c0.365-0.223,0.784-0.341,1.211-0.343c0.571,0.003,1.119,0.226,1.529,0.624
				c0.591,0.609,0.901,1.437,0.855,2.285v7.628c-0.004,0.778-0.181,1.546-0.518,2.247c-0.314,0.731-0.843,1.349-1.517,1.773
				l-3.233,1.873v6.417c-0.005,0.778-0.182,1.545-0.518,2.247c-0.314,0.733-0.846,1.352-1.523,1.773l-6.105,3.527
				C163.765,128.192,163.337,128.3,162.902,128.292z M158.614,106.776l2.141-1.248v-4.151L158.614,106.776z"/>
		</g>
		<g id="freepik--404--inject-62">
			<path class="st3" d="M112.498,142.018c-0.046-0.047-0.099-0.087-0.156-0.119l-4.738-2.734v-22.471
				c0.037-0.418-0.099-0.833-0.375-1.149l-0.15-0.112l-5.062-2.94c-0.237-0.126-0.525-0.107-0.743,0.05l-7.041,4.063
				c-0.367,0.204-0.691,0.478-0.955,0.805c-0.322,0.458-0.58,0.958-0.768,1.486l-13.944,35.111c-0.42,1.095-0.632,2.26-0.624,3.433
				v7.609c-0.039,0.418,0.097,0.834,0.375,1.149c0.046,0.047,0.099,0.087,0.156,0.119l5.062,2.927
				c0.236,0.125,0.522,0.103,0.737-0.056l9.638-5.512v1.467c-0.035,0.417,0.097,0.83,0.368,1.149l0.15,0.112l5.075,2.927
				c0.235,0.126,0.521,0.107,0.737-0.05l6.105-3.527c0.398-0.265,0.706-0.643,0.886-1.086c0.242-0.492,0.37-1.031,0.375-1.579
				v-7.334l4.007-2.316c0.4-0.262,0.71-0.641,0.886-1.086c0.242-0.492,0.37-1.031,0.375-1.579v-7.609
				C112.91,142.748,112.774,142.334,112.498,142.018z"/>
			<path class="st4" d="M98.317,120.358v0.087c-0.288,0.441-0.527,0.912-0.712,1.404l-13.938,35.111
				c-0.182,0.467-0.32,0.949-0.412,1.442l-5.106-2.946c0.095-0.485,0.231-0.961,0.406-1.423l13.938-35.111
				c0.193-0.526,0.453-1.026,0.774-1.486l0,0L98.317,120.358z"/>
			<path class="st14" d="M83.486,169.233c-0.574-0.331-4.8-2.771-4.994-2.884c-0.056-0.036-0.109-0.078-0.156-0.125
				c-0.278-0.315-0.413-0.73-0.375-1.149v-7.603c0.002-0.671,0.068-1.34,0.2-1.997l5.068,2.927
				c-0.133,0.657-0.197,1.327-0.194,1.997v7.609c-0.037,0.415,0.096,0.827,0.368,1.142L83.486,169.233z"/>
			<polygon class="st14" points="99.216,135.913 99.216,149.121 94.946,146.655 			"/>
			<polygon class="st24" points="99.216,149.121 92.406,153.047 94.946,146.655 			"/>
			<path class="st14" d="M99.353,169.208l0.087,0.075l-4.994-2.884c-0.056-0.03-0.107-0.071-0.15-0.119
				c-0.277-0.315-0.413-0.731-0.375-1.149v-1.454l5.068-2.927v7.297C98.946,168.467,99.077,168.887,99.353,169.208z"/>
			<path class="st4" d="M112.286,141.874c-0.222-0.087-0.473-0.056-0.668,0.081l-4.014,2.316v-5.1L112.286,141.874z"/>
			<path class="st20" d="M107.049,115.427c-0.231-0.104-0.499-0.078-0.705,0.069l-7.035,4.063c-0.366,0.204-0.69,0.475-0.955,0.799
				l-5.068-2.927c0.263-0.324,0.585-0.595,0.949-0.799l7.041-4.063c0.218-0.159,0.508-0.176,0.743-0.044L107.049,115.427z"/>
			<path class="st3" d="M100.239,169.295c-0.269,0.204-0.648,0.178-0.886-0.062c-0.277-0.315-0.413-0.73-0.375-1.149v-7.347
				l-14.687,8.477c-0.268,0.207-0.65,0.18-0.886-0.062c-0.278-0.315-0.413-0.73-0.375-1.149v-7.609
				c-0.008-1.173,0.204-2.338,0.624-3.433l13.926-35.105c0.194-0.525,0.452-1.024,0.768-1.486c0.266-0.325,0.59-0.597,0.955-0.805
				l7.041-4.063c0.269-0.204,0.648-0.178,0.886,0.062c0.276,0.316,0.411,0.731,0.375,1.149v27.564l4.007-2.316
				c0.271-0.199,0.646-0.173,0.886,0.062c0.276,0.316,0.411,0.731,0.375,1.149v7.609c-0.004,0.548-0.132,1.088-0.375,1.579
				c-0.176,0.445-0.486,0.824-0.886,1.086l-4.007,2.316v7.291c-0.004,0.548-0.132,1.088-0.375,1.579
				c-0.18,0.443-0.489,0.821-0.886,1.086L100.239,169.295z M99.209,149.14v-13.233l-6.804,17.159L99.209,149.14z"/>
			<path class="st3" d="M145.181,111.807c-0.065-2.317-0.386-4.619-0.955-6.866c-0.407-1.782-1.267-3.429-2.497-4.781
				c-0.369-0.388-0.789-0.724-1.248-0.999c-0.843-0.499-4.613-2.665-5.075-2.934c-0.884-0.505-1.879-0.785-2.896-0.818
				c-1.665-0.087-3.668,0.537-6.011,1.873c-2.292,1.309-4.331,3.019-6.017,5.05c-1.679,2.021-3.081,4.256-4.17,6.648
				c-1.125,2.439-1.963,5.001-2.497,7.634c-0.537,2.63-0.856,5.301-0.955,7.983c-0.062,2.081-0.094,4.251-0.094,6.51
				c0,2.253,0.031,4.338,0.094,6.242c0.065,2.317,0.385,4.62,0.955,6.866c0.406,1.784,1.266,3.434,2.497,4.788
				c0.37,0.385,0.79,0.719,1.248,0.992c0.849,0.499,4.669,2.703,5.156,2.977c0.868,0.48,1.837,0.747,2.828,0.78
				c1.673,0.087,3.683-0.543,6.011-1.873c2.29-1.313,4.327-3.023,6.017-5.05c1.677-2.022,3.079-4.258,4.17-6.648
				c1.125-2.439,1.963-5.001,2.497-7.634c0.537-2.63,0.856-5.301,0.955-7.983c0.062-1.997,0.094-4.12,0.094-6.367
				C145.287,115.951,145.252,113.821,145.181,111.807z M126.761,137.318c-0.115-0.78-0.184-1.565-0.206-2.353
				c-0.154-3.978-0.154-7.998,0-12.059c0.026-1.169,0.135-2.335,0.325-3.489c0.172-1.067,0.454-2.113,0.843-3.121
				c0.363-0.944,0.866-1.828,1.492-2.622c0.567-0.709,1.251-1.317,2.022-1.798c0.106,0.712,0.181,1.486,0.225,2.328
				c0.125,3.903,0.125,7.923,0,12.059c-0.026,1.164-0.128,2.326-0.306,3.477c-0.158,1.069-0.439,2.116-0.836,3.121
				c-0.376,0.947-0.887,1.834-1.517,2.634C128.232,136.215,127.542,136.832,126.761,137.318L126.761,137.318z"/>
			<path class="st4" d="M122.598,152.935l-4.994-2.896c-0.458-0.277-0.877-0.613-1.248-0.999c-1.23-1.352-2.09-2.999-2.497-4.781
				c-0.57-2.247-0.89-4.549-0.955-6.866c-0.062-1.927-0.094-4.007-0.094-6.242c0-2.235,0.031-4.407,0.094-6.517
				c0.099-2.683,0.418-5.353,0.955-7.983c0.372-1.861,0.899-3.688,1.573-5.462l5.062,2.934c-0.667,1.773-1.189,3.598-1.56,5.455
				c-0.542,2.63-0.863,5.3-0.961,7.983c-0.062,2.081-0.094,4.253-0.094,6.517c0,2.264,0.031,4.344,0.094,6.242
				c0.064,2.317,0.386,4.62,0.961,6.866c0.405,1.783,1.265,3.43,2.497,4.781C121.777,152.338,122.169,152.663,122.598,152.935z"/>
			<path class="st20" d="M140.288,99.042c-0.84-0.434-1.764-0.679-2.709-0.718c-1.665-0.083-3.67,0.541-6.017,1.873
				c-2.288,1.315-4.324,3.027-6.011,5.056c-1.679,2.02-3.083,4.253-4.176,6.641c-0.169,0.362-0.325,0.73-0.481,1.105
				c-0.156,0.375-0.281,0.712-0.418,1.074l0,0l-5.062-2.934c0.119-0.318,0.243-0.624,0.375-0.949
				c0.169-0.412,0.337-0.818,0.524-1.248c1.094-2.388,2.496-4.623,4.17-6.648c1.691-2.026,3.729-3.736,6.017-5.05
				c2.328-1.348,4.369-1.972,6.017-1.873c1.015,0.035,2.007,0.316,2.89,0.818C135.843,96.47,139.176,98.387,140.288,99.042z"/>
			<path class="st14" d="M136.542,129.209c-0.029,1.164-0.131,2.325-0.306,3.477c-0.157,1.069-0.438,2.116-0.836,3.121
				c-0.167,0.416-0.361,0.82-0.581,1.211l-5.068-2.927c0.215-0.392,0.407-0.796,0.574-1.211c0.397-1.005,0.68-2.052,0.843-3.121
				c0.172-1.152,0.273-2.313,0.3-3.477c0.125-4.136,0.125-8.156,0-12.059c-0.044-0.843-0.119-1.617-0.218-2.328
				c0,0,0.131-0.094,0.3-0.193c0.683-0.477,1.502-0.722,2.334-0.699c0.605,0.067,1.15,0.395,1.492,0.899
				c0.421,0.65,0.7,1.382,0.818,2.147c0.184,1.032,0.301,2.074,0.35,3.121C136.676,121.059,136.676,125.073,136.542,129.209z"/>
			<path class="st24" d="M134.838,136.999c-0.271,0.5-0.584,0.976-0.936,1.423c-0.642,0.809-1.435,1.485-2.334,1.991
				c-0.683,0.473-1.498,0.718-2.328,0.699c-0.609-0.06-1.162-0.381-1.517-0.88c-0.437-0.639-0.723-1.369-0.836-2.135
				c-0.05-0.25-0.087-0.512-0.125-0.78c0.79-0.481,1.49-1.098,2.066-1.823c0.354-0.447,0.669-0.923,0.943-1.423L134.838,136.999z"/>
			<path class="st3" d="M131.549,100.215c2.334-1.348,4.34-1.972,6.017-1.873c1.575,0.04,3.071,0.694,4.17,1.823
				c1.23,1.352,2.09,2.999,2.497,4.781c0.569,2.247,0.89,4.549,0.955,6.866c0.062,2.022,0.094,4.159,0.094,6.41
				s-0.031,4.374-0.094,6.367c-0.099,2.683-0.418,5.353-0.955,7.983c-0.534,2.633-1.372,5.195-2.497,7.634
				c-1.089,2.377-2.485,4.601-4.151,6.616c-1.69,2.027-3.728,3.737-6.017,5.05c-2.328,1.348-4.338,1.979-6.011,1.873
				c-1.577-0.038-3.076-0.692-4.176-1.823c-1.231-1.354-2.091-3.003-2.497-4.788c-0.57-2.247-0.89-4.549-0.955-6.866
				c-0.062-1.929-0.094-4.014-0.094-6.242s0.031-4.419,0.094-6.51c0.099-2.683,0.418-5.353,0.955-7.983
				c0.534-2.633,1.372-5.195,2.497-7.634c1.093-2.39,2.497-4.626,4.176-6.648C127.236,103.228,129.266,101.522,131.549,100.215z
				 M136.542,129.209c0.125-4.136,0.125-8.156,0-12.059c-0.046-1.047-0.162-2.09-0.35-3.121c-0.116-0.765-0.392-1.497-0.811-2.147
				c-0.337-0.508-0.885-0.838-1.492-0.899c-0.832-0.016-1.648,0.228-2.334,0.699c-0.898,0.506-1.689,1.183-2.328,1.991
				c-0.626,0.794-1.129,1.678-1.492,2.622c-0.388,1.008-0.671,2.054-0.843,3.121c-0.19,1.154-0.298,2.32-0.325,3.489
				c-0.154,4.061-0.154,8.081,0,12.059c0.019,1.047,0.119,2.09,0.3,3.121c0.113,0.767,0.401,1.497,0.843,2.135
				c0.354,0.501,0.907,0.824,1.517,0.886c0.83,0.015,1.644-0.229,2.328-0.699c0.897-0.51,1.689-1.186,2.334-1.991
				c0.626-0.802,1.134-1.689,1.511-2.634c0.4-1.005,0.682-2.052,0.843-3.121C136.414,131.518,136.514,130.365,136.542,129.209z"/>
			<path class="st3" d="M180.96,102.506c-0.048-0.047-0.103-0.087-0.162-0.119l-4.738-2.734V77.183
				c0.037-0.417-0.096-0.831-0.368-1.149c-0.045-0.043-0.096-0.081-0.15-0.112l-5.068-2.927c-0.237-0.126-0.525-0.107-0.743,0.05
				l-7.041,4.063c-0.368,0.204-0.692,0.477-0.955,0.805c-0.317,0.461-0.575,0.96-0.768,1.486l-13.938,35.111
				c-0.42,1.095-0.632,2.26-0.624,3.433v7.609c-0.04,0.417,0.093,0.832,0.368,1.149c0.048,0.047,0.103,0.087,0.162,0.119
				l5.062,2.927c0.236,0.125,0.522,0.103,0.737-0.056l9.613-5.549v1.461c-0.037,0.418,0.099,0.833,0.375,1.149l0.15,0.112
				l5.068,2.927c0.235,0.123,0.52,0.104,0.737-0.05l6.13-3.514c0.396-0.267,0.704-0.645,0.886-1.086
				c0.237-0.493,0.362-1.032,0.368-1.579v-7.322l4.014-2.316c0.399-0.264,0.708-0.643,0.886-1.086
				c0.237-0.493,0.362-1.032,0.368-1.579v-7.615C181.36,103.23,181.228,102.821,180.96,102.506z"/>
			<path class="st4" d="M166.772,80.834v0.087c-0.288,0.441-0.527,0.912-0.712,1.404l-13.938,35.111
				c-0.182,0.467-0.32,0.949-0.412,1.442l-5.106-2.946c0.095-0.485,0.231-0.961,0.406-1.423l13.913-35.098
				c0.193-0.526,0.453-1.026,0.774-1.486l0,0L166.772,80.834z"/>
			<path class="st14" d="M151.954,129.709c-0.574-0.331-4.8-2.771-4.994-2.884c-0.056-0.036-0.109-0.078-0.156-0.125
				c-0.278-0.315-0.413-0.73-0.375-1.149v-7.603c0.002-0.671,0.068-1.34,0.2-1.997l5.068,2.927
				c-0.133,0.657-0.197,1.327-0.194,1.997v7.609c-0.037,0.415,0.096,0.827,0.368,1.142L151.954,129.709z"/>
			<polygon class="st14" points="167.671,96.389 167.671,109.597 163.401,107.132 			"/>
			<polygon class="st24" points="167.671,109.597 160.861,113.523 163.401,107.132 			"/>
			<path class="st14" d="M167.808,129.684l0.087,0.075l-4.994-2.884c-0.056-0.03-0.107-0.071-0.15-0.119
				c-0.277-0.315-0.413-0.731-0.375-1.149v-1.467l5.068-2.927v7.322C167.405,128.951,167.536,129.366,167.808,129.684z"/>
			<path class="st4" d="M180.742,102.35c-0.222-0.087-0.473-0.056-0.668,0.081l-4.014,2.316v-5.1L180.742,102.35z"/>
			<path class="st20" d="M175.505,75.903c-0.231-0.104-0.499-0.078-0.705,0.069l-7.047,4.063c-0.366,0.204-0.69,0.475-0.955,0.799
				l-5.068-2.927c0.263-0.324,0.585-0.595,0.949-0.799l7.041-4.063c0.218-0.159,0.508-0.176,0.743-0.044L175.505,75.903z"/>
			<path class="st3" d="M168.695,129.746c-0.269,0.204-0.648,0.178-0.886-0.062c-0.274-0.317-0.407-0.732-0.368-1.149v-7.303
				l-14.669,8.458c-0.268,0.207-0.65,0.18-0.886-0.062c-0.278-0.315-0.413-0.73-0.375-1.149v-7.609
				c-0.008-1.173,0.204-2.338,0.624-3.433l13.938-35.111c0.192-0.527,0.452-1.026,0.774-1.486c0.247-0.324,0.554-0.597,0.905-0.805
				l7.041-4.063c0.27-0.202,0.647-0.175,0.886,0.062c0.272,0.318,0.405,0.732,0.368,1.149v27.564l4.014-2.316
				c0.27-0.202,0.647-0.175,0.886,0.062c0.271,0.318,0.404,0.732,0.368,1.149v7.603c-0.006,0.547-0.132,1.086-0.368,1.579
				c-0.179,0.443-0.488,0.822-0.886,1.086l-4.001,2.328v7.322c-0.006,0.547-0.132,1.086-0.368,1.579
				c-0.182,0.441-0.491,0.819-0.886,1.086L168.695,129.746z M167.671,109.591V96.383l-6.785,17.14L167.671,109.591z"/>
		</g>
		<path class="st7" d="M119.202,173.933c0.058-0.048,0.142-0.048,0.2,0c0.063,0.072,0.095,0.167,0.087,0.262v1.723
			c-0.003,0.126-0.033,0.249-0.087,0.362c-0.039,0.1-0.109,0.186-0.2,0.243l-4.994,2.89c-0.058,0.048-0.142,0.048-0.2,0
			c-0.061-0.073-0.09-0.167-0.081-0.262v-10.48c0-0.123,0.028-0.245,0.081-0.356c0.041-0.099,0.11-0.184,0.2-0.243l4.925-2.846
			c0.057-0.051,0.143-0.051,0.2,0c0.062,0.07,0.091,0.163,0.081,0.256v1.729c0,0.123-0.028,0.245-0.081,0.356
			c-0.041,0.099-0.11,0.184-0.2,0.243l-3.252,1.873v1.754l3.015-1.742c0.061-0.047,0.145-0.047,0.206,0
			c0.061,0.073,0.09,0.167,0.081,0.262v1.723c0,0.123-0.028,0.245-0.081,0.356c-0.043,0.101-0.115,0.188-0.206,0.25l-3.015,1.742
			v1.823L119.202,173.933z"/>
		<path class="st7" d="M124.115,162.323c0.383-0.239,0.806-0.406,1.248-0.493c0.319-0.069,0.653-0.018,0.936,0.144
			c0.289,0.193,0.499,0.483,0.593,0.818c0.152,0.497,0.222,1.016,0.206,1.536c0.008,0.749-0.103,1.496-0.331,2.21
			c-0.201,0.639-0.514,1.237-0.924,1.766l1.305,3.121c0.022,0.049,0.033,0.102,0.031,0.156c0.001,0.102-0.022,0.203-0.069,0.293
			c-0.033,0.081-0.09,0.15-0.162,0.2l-1.436,0.83c-0.137,0.081-0.237,0.087-0.3,0c-0.059-0.06-0.107-0.13-0.144-0.206l-1.18-2.778
			l-0.968,0.556v3.483c-0.002,0.124-0.032,0.245-0.087,0.356c-0.044,0.099-0.113,0.185-0.2,0.25l-1.386,0.793
			c-0.056,0.054-0.144,0.054-0.2,0c-0.063-0.072-0.093-0.167-0.081-0.262v-10.518c0-0.123,0.028-0.245,0.081-0.356
			c0.041-0.101,0.11-0.188,0.2-0.25L124.115,162.323z M122.922,167.94l1.192-0.687c0.292-0.171,0.541-0.406,0.73-0.687
			c0.208-0.332,0.31-0.72,0.293-1.111c0-0.456-0.1-0.712-0.293-0.774c-0.255-0.05-0.52,0.009-0.73,0.162l-1.192,0.705V167.94z"/>
		<path class="st7" d="M131.717,157.928c0.384-0.237,0.806-0.404,1.248-0.493c0.317-0.063,0.646-0.012,0.93,0.144
			c0.299,0.192,0.52,0.484,0.624,0.824c0.133,0.498,0.183,1.015,0.15,1.529c0.007,0.751-0.102,1.499-0.325,2.216
			c-0.206,0.636-0.521,1.232-0.93,1.76l1.305,3.121c0.024,0.051,0.037,0.106,0.037,0.162c-0.002,0.102-0.025,0.202-0.069,0.293
			c-0.037,0.08-0.096,0.149-0.169,0.2l-1.436,0.83c-0.137,0.081-0.237,0.087-0.3,0c-0.06-0.061-0.109-0.133-0.144-0.212
			l-1.148-2.753l-0.967,0.562v3.483c-0.002,0.124-0.032,0.245-0.087,0.356c-0.041,0.099-0.11,0.184-0.2,0.243l-1.386,0.799
			c-0.057,0.051-0.143,0.051-0.2,0c-0.061-0.073-0.09-0.167-0.081-0.262v-10.543c0-0.125,0.028-0.249,0.081-0.362
			c0.041-0.099,0.11-0.184,0.2-0.243L131.717,157.928z M130.525,163.546l1.192-0.693c0.294-0.165,0.545-0.399,0.73-0.68
			c0.207-0.332,0.31-0.72,0.293-1.111c0-0.456-0.1-0.712-0.293-0.774c-0.255-0.049-0.52,0.01-0.73,0.162l-1.192,0.687V163.546z"/>
		<path class="st7" d="M135.918,159.739c0.02-0.631,0.106-1.259,0.256-1.873c0.144-0.611,0.354-1.206,0.624-1.773
			c0.275-0.55,0.617-1.063,1.017-1.529c0.391-0.457,0.858-0.843,1.379-1.142c0.411-0.266,0.884-0.419,1.373-0.443
			c0.371-0.009,0.733,0.117,1.017,0.356c0.298,0.278,0.514,0.632,0.624,1.024c0.16,0.507,0.247,1.035,0.256,1.567
			c0,0.456,0,0.943,0,1.448c0,0.506,0,0.992,0,1.448c-0.02,0.631-0.106,1.259-0.256,1.873c-0.142,0.614-0.352,1.211-0.624,1.779
			c-0.272,0.551-0.614,1.065-1.017,1.529c-0.392,0.452-0.856,0.836-1.373,1.136c-0.413,0.267-0.888,0.424-1.379,0.456
			c-0.371,0.009-0.733-0.117-1.017-0.356c-0.293-0.286-0.508-0.643-0.624-1.036c-0.16-0.507-0.247-1.035-0.256-1.567
			c0-0.437,0-0.911,0-1.417S135.918,160.213,135.918,159.739z M140.556,159.876c0-0.2,0-0.418,0-0.662c0-0.243,0-0.487,0-0.737
			c0-0.25,0-0.487,0-0.718c0-0.231,0-0.431,0-0.624c-0.013-0.232-0.051-0.462-0.112-0.687c-0.046-0.169-0.134-0.323-0.256-0.449
			c-0.111-0.101-0.255-0.159-0.406-0.162c-0.203,0.01-0.399,0.074-0.568,0.187c-0.218,0.123-0.413,0.283-0.574,0.474
			c-0.162,0.19-0.298,0.399-0.406,0.624c-0.11,0.238-0.194,0.487-0.25,0.743c-0.063,0.266-0.101,0.538-0.112,0.811
			c0,0.193,0,0.406,0,0.624s0,0.481,0,0.73s0,0.493,0,0.724c0,0.231,0,0.449,0,0.624c-0.012,0.411,0.115,0.814,0.362,1.142
			c0.218,0.231,0.543,0.225,0.98-0.031c0.434-0.247,0.774-0.632,0.967-1.092c0.215-0.482,0.346-0.997,0.387-1.523H140.556z"/>
		<path class="st7" d="M147.154,149.009c0.384-0.237,0.806-0.404,1.248-0.493c0.317-0.063,0.646-0.012,0.93,0.144
			c0.299,0.192,0.52,0.484,0.624,0.824c0.152,0.495,0.221,1.012,0.206,1.529c0.007,0.751-0.102,1.499-0.325,2.216
			c-0.207,0.637-0.522,1.235-0.93,1.766l1.305,3.121c0.024,0.051,0.037,0.106,0.037,0.162c-0.002,0.102-0.025,0.202-0.069,0.293
			c-0.037,0.08-0.096,0.149-0.169,0.2l-1.436,0.83c-0.137,0.081-0.237,0.087-0.3,0c-0.06-0.061-0.109-0.133-0.144-0.212
			l-1.173-2.803l-0.968,0.562v3.483c-0.002,0.124-0.032,0.245-0.087,0.356c-0.041,0.099-0.11,0.184-0.2,0.243l-1.386,0.799
			c-0.057,0.051-0.143,0.051-0.2,0c-0.061-0.073-0.09-0.167-0.081-0.262v-10.499c0.001-0.125,0.028-0.249,0.081-0.362
			c0.041-0.099,0.11-0.184,0.2-0.243L147.154,149.009z M145.961,154.626l1.192-0.693c0.295-0.167,0.547-0.4,0.737-0.68
			c0.205-0.333,0.305-0.72,0.287-1.111c0-0.456-0.094-0.712-0.287-0.774c-0.257-0.05-0.524,0.009-0.737,0.162l-1.192,0.687V154.626z
			"/>
		<path class="st2" d="M100.158,191.91c0.624-0.375,1.161-0.431,1.523-0.162c0.362,0.268,0.543,0.849,0.543,1.766
			c0.018,0.833-0.168,1.659-0.543,2.403c-0.342,0.671-0.871,1.228-1.523,1.604l-1.292,0.743v2.784
			c-0.002,0.093-0.026,0.185-0.069,0.268c-0.029,0.078-0.081,0.146-0.15,0.193l-0.624,0.375c-0.044,0.042-0.113,0.042-0.156,0
			c-0.047-0.053-0.07-0.123-0.062-0.194v-8.052c0-0.095,0.021-0.189,0.062-0.275c0.033-0.076,0.087-0.141,0.156-0.187
			L100.158,191.91z M98.866,196.71l1.248-0.724c0.668-0.364,1.062-1.083,1.011-1.841c0-0.468-0.094-0.737-0.275-0.811
			c-0.257-0.058-0.527,0.001-0.737,0.162l-1.248,0.724V196.71z"/>
		<path class="st2" d="M105.632,188.757c0.081-0.05,0.15-0.056,0.193,0c0.058,0.072,0.097,0.158,0.112,0.25l1.985,6.729
			c0,0,0,0.05,0,0.081c-0.002,0.095-0.023,0.188-0.062,0.275c-0.032,0.077-0.086,0.142-0.156,0.187l-0.58,0.337
			c-0.112,0.062-0.187,0.075-0.231,0c-0.042-0.044-0.072-0.097-0.087-0.156l-0.35-1.18l-2.547,1.479l-0.35,1.579
			c-0.023,0.087-0.052,0.173-0.087,0.256c-0.048,0.103-0.129,0.187-0.231,0.237l-0.58,0.337c-0.045,0.039-0.111,0.039-0.156,0
			c-0.046-0.056-0.069-0.128-0.062-0.2c-0.003-0.031-0.003-0.062,0-0.094l1.991-8.982c0.023-0.131,0.061-0.258,0.112-0.381
			c0.038-0.093,0.106-0.17,0.194-0.218L105.632,188.757z M106.075,193.969l-0.893-3.04l-0.886,4.064L106.075,193.969z"/>
		<path class="st2" d="M108.554,190.293c0.007-0.494,0.066-0.985,0.175-1.467c0.107-0.459,0.264-0.905,0.468-1.33
			c0.203-0.406,0.459-0.784,0.762-1.124c0.303-0.336,0.657-0.622,1.049-0.849c0.345-0.231,0.746-0.365,1.161-0.387
			c0.263-0.002,0.518,0.086,0.724,0.25c0.186,0.165,0.319,0.383,0.381,0.624c0.069,0.202,0.111,0.412,0.125,0.624
			c0.007,0.097-0.013,0.194-0.056,0.281c-0.035,0.075-0.092,0.138-0.162,0.181l-0.624,0.381c-0.056,0.031-0.106,0.037-0.137,0
			c-0.037-0.024-0.065-0.059-0.081-0.1c-0.024-0.058-0.051-0.114-0.081-0.169c-0.053-0.092-0.128-0.17-0.218-0.225
			c-0.12-0.067-0.256-0.1-0.393-0.094c-0.222,0.013-0.437,0.084-0.624,0.206c-0.423,0.252-0.761,0.623-0.974,1.067
			c-0.248,0.488-0.38,1.026-0.387,1.573c0,0.325,0,0.668,0,1.024c0,0.356,0,0.699,0,1.005c0,0.68,0.144,1.111,0.387,1.248
			c0.314,0.169,0.698,0.132,0.974-0.094c0.199-0.117,0.383-0.258,0.549-0.418c0.172-0.168,0.317-0.362,0.431-0.574
			c0.132-0.236,0.227-0.491,0.281-0.755c0.073-0.315,0.109-0.638,0.106-0.961v-0.1l-0.992,0.574c-0.044,0.036-0.106,0.036-0.15,0
			c-0.048-0.055-0.07-0.127-0.062-0.2V189.6c0-0.095,0.021-0.189,0.062-0.275c0.033-0.074,0.085-0.139,0.15-0.187l1.873-1.074
			c0.041-0.041,0.108-0.041,0.15,0c0.051,0.054,0.076,0.126,0.069,0.2v1.367c-0.002,0.493-0.054,0.985-0.156,1.467
			c-0.096,0.467-0.251,0.92-0.462,1.348c-0.203,0.418-0.461,0.806-0.768,1.155c-0.308,0.349-0.671,0.647-1.074,0.88
			c-0.324,0.206-0.692,0.333-1.074,0.368c-0.276,0.016-0.546-0.081-0.749-0.268c-0.225-0.223-0.383-0.504-0.456-0.811
			c-0.113-0.407-0.172-0.826-0.175-1.248c0-0.156,0-0.331,0-0.518c0-0.187,0-0.387,0-0.587c0-0.2,0-0.393,0-0.587
			C108.572,190.636,108.547,190.455,108.554,190.293z"/>
		<path class="st2" d="M118.441,188.514c0.044-0.042,0.113-0.042,0.156,0c0.051,0.054,0.076,0.126,0.069,0.2v0.88
			c-0.002,0.096-0.025,0.19-0.069,0.275c-0.029,0.078-0.084,0.144-0.156,0.187l-3.552,2.054c-0.043,0.038-0.107,0.038-0.15,0
			c-0.051-0.054-0.076-0.126-0.069-0.2v-8.046c0.002-0.096,0.025-0.19,0.069-0.275c0.029-0.077,0.082-0.142,0.15-0.187l3.489-2.016
			c0.045-0.039,0.111-0.039,0.156,0c0.048,0.055,0.07,0.127,0.062,0.2v0.886c-0.001,0.093-0.022,0.185-0.062,0.268
			c-0.031,0.079-0.086,0.146-0.156,0.193l-2.615,1.504v1.985l2.441-1.411c0.044-0.036,0.106-0.036,0.15,0
			c0.049,0.054,0.074,0.127,0.069,0.2v0.936c-0.002,0.096-0.025,0.19-0.069,0.275c-0.033,0.074-0.085,0.139-0.15,0.187l-2.428,1.411
			v2.072L118.441,188.514z"/>
		<path class="st2" d="M125.6,185.942c-0.094,0.056-0.162,0.056-0.206,0l-0.106-0.112l-2.266-3.876v5.131
			c-0.002,0.096-0.025,0.19-0.069,0.275c-0.029,0.076-0.082,0.142-0.15,0.187l-0.655,0.381c-0.044,0.042-0.113,0.042-0.156,0
			c-0.048-0.055-0.071-0.127-0.062-0.2v-8.046c0-0.095,0.021-0.189,0.062-0.275c0.029-0.078,0.084-0.144,0.156-0.187l0.562-0.331
			c0.094-0.05,0.162-0.056,0.212,0c0.039,0.034,0.075,0.072,0.106,0.112l2.266,3.876v-5.131c0-0.095,0.021-0.189,0.062-0.275
			c0.032-0.077,0.086-0.142,0.156-0.187l0.624-0.381c0.044-0.042,0.113-0.042,0.156,0c0.046,0.056,0.068,0.128,0.062,0.2v8.046
			c-0.003,0.095-0.025,0.188-0.062,0.275c-0.032,0.077-0.086,0.142-0.156,0.187L125.6,185.942z"/>
		<path class="st2" d="M127.66,179.282c0.013-0.476,0.069-0.951,0.169-1.417c0.098-0.456,0.246-0.9,0.443-1.323
			c0.19-0.412,0.436-0.797,0.73-1.142c0.29-0.35,0.641-0.644,1.036-0.868c0.306-0.199,0.659-0.313,1.024-0.331
			c0.274-0.002,0.537,0.106,0.73,0.3c0.214,0.231,0.367,0.512,0.443,0.818c0.111,0.397,0.172,0.805,0.181,1.217
			c0,0.156,0,0.325,0,0.518v1.18c0,0.193,0,0.368,0,0.531c-0.018,0.476-0.076,0.95-0.175,1.417
			c-0.097,0.457-0.245,0.901-0.443,1.323c-0.19,0.412-0.436,0.797-0.73,1.142c-0.291,0.343-0.64,0.632-1.03,0.855
			c-0.309,0.202-0.667,0.319-1.036,0.337c-0.272,0.001-0.535-0.104-0.73-0.293c-0.214-0.231-0.367-0.512-0.443-0.818
			c-0.106-0.397-0.162-0.806-0.169-1.217c0-0.15,0-0.325,0-0.512s0-0.387,0-0.593s0-0.399,0-0.593S127.654,179.451,127.66,179.282z
			 M131.324,177.229c0.032-0.425-0.103-0.845-0.375-1.173c-0.276-0.195-0.649-0.182-0.911,0.031
			c-0.399,0.242-0.717,0.599-0.911,1.024c-0.242,0.5-0.37,1.048-0.375,1.604c0,0.325,0,0.674,0,1.061c0,0.387,0,0.737,0,1.042
			c-0.04,0.424,0.096,0.846,0.375,1.167c0.231,0.193,0.531,0.181,0.911-0.037c0.396-0.241,0.713-0.592,0.911-1.011
			c0.236-0.503,0.363-1.049,0.375-1.604c0-0.318,0-0.674,0-1.061c0-0.387,0.006-0.724,0-1.036V177.229z"/>
		<path class="st2" d="M137.341,170.444c0.045-0.039,0.111-0.039,0.156,0c0.048,0.055,0.07,0.127,0.062,0.2v0.886
			c0,0.095-0.021,0.189-0.062,0.275c-0.033,0.076-0.087,0.141-0.156,0.187l-1.423,0.849v6.829c-0.002,0.095-0.023,0.188-0.062,0.275
			c-0.032,0.077-0.086,0.142-0.156,0.187l-0.624,0.381c-0.045,0.039-0.111,0.039-0.156,0c-0.048-0.055-0.071-0.127-0.062-0.2v-6.835
			l-1.517,0.811c-0.044,0.042-0.113,0.042-0.156,0c-0.047-0.053-0.07-0.123-0.062-0.193v-0.886c0-0.095,0.021-0.189,0.062-0.275
			c0.029-0.078,0.084-0.144,0.156-0.187L137.341,170.444z"/>
		<path class="st2" d="M144.095,166.549c0.043-0.038,0.107-0.038,0.15,0c0.051,0.054,0.076,0.126,0.069,0.2v0.88
			c-0.002,0.096-0.025,0.19-0.069,0.275c-0.029,0.076-0.082,0.142-0.15,0.187l-2.559,1.504v2.416l2.422-1.392
			c0.043-0.038,0.107-0.038,0.15,0c0.049,0.055,0.073,0.127,0.069,0.2v0.886c-0.002,0.096-0.025,0.19-0.069,0.275
			c-0.029,0.076-0.082,0.142-0.15,0.187l-2.422,1.404v2.853c0,0.095-0.021,0.189-0.062,0.275c-0.029,0.078-0.084,0.144-0.156,0.187
			l-0.655,0.381c-0.045,0.039-0.111,0.039-0.156,0c-0.048-0.055-0.07-0.127-0.062-0.2v-8.058c0-0.095,0.021-0.189,0.062-0.275
			c0.029-0.078,0.084-0.144,0.156-0.187L144.095,166.549z"/>
		<path class="st2" d="M145.194,169.164c0.015-0.477,0.074-0.951,0.175-1.417c0.095-0.456,0.241-0.9,0.437-1.323
			c0.192-0.411,0.438-0.795,0.73-1.142c0.292-0.348,0.642-0.642,1.036-0.868c0.308-0.2,0.663-0.314,1.03-0.331
			c0.272-0.001,0.532,0.107,0.724,0.3c0.213,0.233,0.367,0.513,0.449,0.818c0.109,0.397,0.168,0.806,0.175,1.217
			c0,0.156,0,0.325,0,0.518s0,0.387,0,0.587s0,0.399,0,0.593s0,0.375,0,0.531c-0.015,0.477-0.073,0.951-0.175,1.417
			c-0.095,0.456-0.241,0.9-0.437,1.323c-0.192,0.413-0.44,0.797-0.737,1.142c-0.291,0.343-0.64,0.632-1.03,0.855
			c-0.309,0.203-0.667,0.32-1.036,0.337c-0.272,0-0.534-0.105-0.73-0.293c-0.214-0.23-0.364-0.512-0.437-0.818
			c-0.108-0.397-0.167-0.806-0.175-1.217c0-0.15,0-0.325,0-0.512c0-0.187,0-0.387,0-0.624s0-0.399,0-0.593
			S145.187,169.326,145.194,169.164z M148.858,167.11c0.038-0.426-0.097-0.848-0.375-1.173c-0.231-0.193-0.537-0.181-0.911,0.037
			c-0.398,0.242-0.715,0.596-0.911,1.017c-0.242,0.5-0.37,1.048-0.375,1.604c0,0.325,0,0.674,0,1.061c0,0.387,0,0.737,0,1.042
			c-0.04,0.424,0.096,0.846,0.375,1.167c0.231,0.193,0.537,0.181,0.911-0.037c0.396-0.241,0.713-0.592,0.911-1.011
			c0.242-0.5,0.37-1.048,0.375-1.604c0-0.318,0-0.674,0-1.061C148.858,167.766,148.87,167.422,148.858,167.11z"/>
		<path class="st2" d="M155.599,159.932c0.045-0.039,0.111-0.039,0.156,0c0.046,0.056,0.069,0.128,0.062,0.2v5.112
			c0,0.497-0.048,0.992-0.144,1.479c-0.085,0.455-0.221,0.899-0.406,1.323c-0.189,0.404-0.435,0.778-0.73,1.111
			c-0.29,0.328-0.631,0.606-1.011,0.824c-0.304,0.199-0.655,0.318-1.017,0.343c-0.268,0.012-0.529-0.085-0.724-0.268
			c-0.217-0.23-0.366-0.515-0.431-0.824c-0.102-0.429-0.151-0.87-0.144-1.311v-5.112c0.003-0.095,0.026-0.189,0.069-0.275
			c0.031-0.076,0.083-0.141,0.15-0.187l0.624-0.381c0.045-0.039,0.111-0.039,0.156,0c0.046,0.056,0.069,0.128,0.062,0.2v5.043
			c-0.008,0.278,0.024,0.555,0.094,0.824c0.036,0.172,0.123,0.329,0.25,0.449c0.109,0.088,0.248,0.129,0.387,0.112
			c0.174-0.029,0.342-0.09,0.493-0.181c0.385-0.224,0.695-0.556,0.893-0.955c0.114-0.236,0.198-0.486,0.25-0.743
			c0.066-0.303,0.097-0.613,0.094-0.924v-5.05c0.002-0.096,0.025-0.19,0.069-0.275c0.031-0.077,0.083-0.144,0.15-0.193
			L155.599,159.932z"/>
		<path class="st2" d="M160.917,165.55c-0.094,0.05-0.162,0.056-0.212,0c-0.039-0.034-0.074-0.072-0.106-0.112l-2.266-3.87v5.131
			c0,0.095-0.021,0.189-0.062,0.275c-0.031,0.077-0.086,0.143-0.156,0.187l-0.655,0.381c-0.043,0.038-0.107,0.038-0.15,0
			c-0.049-0.054-0.074-0.127-0.069-0.2v-8.033c0.003-0.093,0.026-0.185,0.069-0.268c0.031-0.077,0.083-0.144,0.15-0.194l0.568-0.325
			c0.094-0.05,0.162-0.056,0.212,0l0.106,0.112l2.266,3.87v-5.131c0-0.095,0.021-0.189,0.062-0.275
			c0.033-0.074,0.085-0.139,0.15-0.187l0.662-0.381c0.044-0.036,0.106-0.036,0.15,0c0.049,0.055,0.073,0.127,0.069,0.2v8.046
			c-0.002,0.096-0.025,0.19-0.069,0.275c-0.031,0.077-0.083,0.144-0.15,0.193L160.917,165.55z"/>
		<path class="st2" d="M165.38,154.258c0.314-0.201,0.671-0.325,1.042-0.362c0.272-0.015,0.538,0.082,0.737,0.268
			c0.221,0.23,0.376,0.514,0.449,0.824c0.118,0.427,0.183,0.868,0.193,1.311c0,0.624,0,1.217,0,1.841
			c-0.018,0.515-0.083,1.026-0.193,1.529c-0.093,0.464-0.242,0.914-0.443,1.342c-0.19,0.402-0.433,0.775-0.724,1.111
			c-0.292,0.33-0.636,0.61-1.017,0.83l-2.041,1.18c-0.043,0.038-0.107,0.038-0.15,0c-0.049-0.054-0.074-0.127-0.069-0.2v-8.058
			c0.002-0.096,0.025-0.19,0.069-0.275c0.027-0.078,0.08-0.144,0.15-0.187L165.38,154.258z M166.71,156.93
			c-0.007-0.232-0.041-0.462-0.1-0.687c-0.044-0.168-0.13-0.323-0.25-0.449c-0.111-0.108-0.263-0.165-0.418-0.156
			c-0.223,0.008-0.439,0.077-0.624,0.2l-1.086,0.624v5.618l1.124-0.624c0.219-0.121,0.414-0.282,0.574-0.474
			c0.164-0.188,0.301-0.398,0.406-0.624c0.111-0.237,0.195-0.487,0.25-0.743c0.056-0.265,0.089-0.535,0.1-0.805
			C166.728,158.147,166.728,157.529,166.71,156.93L166.71,156.93z"/>
	</g>
</g>
<g id="freepik--speech-bubble--inject-62_00000163070314057686355040000010666112827713341066_">
	<g id="freepik--speech-bubble--inject-62_00000054974270204016406640000015998175281966911393_">
		<g id="freepik--speech-bubble--inject-62">
			<path class="st3" d="M256.594,21.804l-31.341,18.102c-0.479,0.309-0.781,0.829-0.811,1.398v40.073
				c0.03,0.568,0.332,1.086,0.811,1.392l2.896,1.623c0.508,0.256,1.108,0.256,1.617,0l31.347-18.102
				c0.474-0.313,0.772-0.831,0.805-1.398V24.807c-0.03-0.566-0.332-1.083-0.811-1.386l-2.89-1.623
				C257.705,21.544,257.103,21.546,256.594,21.804z"/>
			<path class="st3" d="M228.961,83.918V43.832c0.03-0.568,0.329-1.087,0.805-1.398l31.347-18.102
				c0.443-0.256,0.805-0.05,0.805,0.462v40.079c-0.033,0.567-0.332,1.085-0.805,1.398l-31.347,18.102
				C229.316,84.642,228.961,84.405,228.961,83.918z"/>
			<path class="st25" d="M229.766,84.405c-0.513,0.247-1.11,0.247-1.623,0l-2.89-1.623c-0.477-0.305-0.779-0.82-0.811-1.386V41.335
				c0.012-0.292,0.1-0.576,0.256-0.824l4.5,2.565c-0.147,0.239-0.229,0.512-0.237,0.793v40.073
				C228.961,84.405,229.291,84.661,229.766,84.405z"/>
			<path class="st20" d="M261.905,24.663c-0.062-0.406-0.393-0.549-0.793-0.318l-31.347,18.102c-0.24,0.156-0.436,0.371-0.568,0.624
				l-4.5-2.565c0.133-0.236,0.324-0.433,0.556-0.574L256.6,21.829c0.508-0.256,1.108-0.256,1.617,0l2.89,1.617
				C261.534,23.72,261.824,24.162,261.905,24.663z"/>
			<path class="st3" d="M224.441,53.382l-6.492,6.604c-0.279,0.277-0.28,0.727-0.004,1.006c0.037,0.037,0.078,0.07,0.122,0.099
				c0.137,0.087,4.494,2.59,4.494,2.59l6.398-7.696L224.441,53.382z"/>
			<path class="st8" d="M224.441,53.382l-6.492,6.604c-0.279,0.277-0.28,0.727-0.004,1.006c0.037,0.037,0.078,0.07,0.122,0.099
				c0.137,0.087,4.494,2.59,4.494,2.59l6.398-7.696L224.441,53.382z"/>
			<path class="st3" d="M228.961,55.985l-6.498,6.604c-0.277,0.284-0.272,0.738,0.012,1.015c0.162,0.158,0.389,0.231,0.613,0.196
				l5.886-0.849C229.591,62.951,229.591,55.985,228.961,55.985z"/>
		</g>
		<g id="freepik--dead-emoji--inject-62">
			<path class="st7" d="M240.159,54.443c-0.161-0.001-0.315-0.063-0.431-0.175l-4.656-4.482c-0.266-0.219-0.304-0.613-0.084-0.879
				c0.219-0.266,0.613-0.304,0.879-0.084c0.024,0.02,0.046,0.041,0.067,0.064l4.663,4.482c0.245,0.243,0.246,0.638,0.004,0.883
				c-0.001,0.001-0.002,0.002-0.004,0.004C240.48,54.374,240.323,54.441,240.159,54.443z"/>
			<path class="st7" d="M235.502,57.152c-0.092-0.001-0.184-0.02-0.268-0.056c-0.31-0.149-0.441-0.52-0.293-0.83l4.656-9.862
				c0.147-0.312,0.518-0.446,0.83-0.3c0.312,0.147,0.446,0.518,0.3,0.83l-4.656,9.862C235.966,57.015,235.744,57.154,235.502,57.152
				z"/>
			<path class="st7" d="M255.376,45.705c-0.163,0.001-0.32-0.062-0.437-0.175l-4.656-4.482c-0.242-0.243-0.242-0.637,0-0.88
				c0.243-0.245,0.638-0.246,0.883-0.004c0.001,0.001,0.002,0.002,0.004,0.004l4.656,4.482c0.248,0.239,0.255,0.634,0.016,0.883
				c-0.117,0.121-0.278,0.19-0.447,0.191L255.376,45.705z"/>
			<path class="st7" d="M250.714,48.37c-0.09,0-0.18-0.019-0.262-0.056c-0.313-0.145-0.448-0.516-0.303-0.829
				c0.001-0.002,0.002-0.005,0.003-0.007l4.656-9.856c0.141-0.315,0.51-0.456,0.825-0.315c0.315,0.141,0.456,0.51,0.315,0.825
				c-0.003,0.007-0.007,0.014-0.01,0.021l-4.656,9.862C251.177,48.233,250.956,48.372,250.714,48.37z"/>
			<path class="st7" d="M235.296,68.325c-0.224,0.001-0.431-0.118-0.543-0.312c-0.169-0.298-0.066-0.677,0.231-0.849l20.286-11.716
				c0.3-0.172,0.683-0.069,0.855,0.231c0.172,0.3,0.069,0.683-0.231,0.855l-20.286,11.71
				C235.513,68.298,235.405,68.326,235.296,68.325z"/>
			<path class="st7" d="M249.434,68.656c-0.341,0.001-0.677-0.087-0.974-0.256c-0.765-0.529-1.189-1.426-1.111-2.353v-5.661
				c0-0.345,0.279-0.624,0.624-0.624s0.624,0.279,0.624,0.624v5.661c-0.054,0.471,0.128,0.938,0.487,1.248
				c0.372,0.146,0.794,0.087,1.111-0.156c1.331-0.928,2.152-2.424,2.222-4.045v-5.661c0-0.345,0.279-0.624,0.624-0.624
				s0.624,0.279,0.624,0.624v5.661c-0.065,2.068-1.126,3.976-2.846,5.125C250.404,68.484,249.926,68.635,249.434,68.656z"/>
			<path class="st7" d="M250.508,65.011c-0.345,0-0.624-0.279-0.624-0.624v-5.468c0-0.345,0.279-0.624,0.624-0.624
				s0.624,0.279,0.624,0.624v5.468C251.132,64.731,250.852,65.011,250.508,65.011z"/>
		</g>
	</g>
</g>
<g id="freepik--Character--inject-62">
	<g id="freepik--character--inject-62">
		<path class="st26" d="M231.601,228.344c0-0.955-0.25-6.242-0.549-11.111c-0.312-5.125-0.306-9.812-0.306-9.812l8.664,6.467
			c-1.873,11.51-2.066,14.051-2.097,15.936l-0.212,0.175c0.041,0.157,0.058,0.319,0.05,0.481c0,2.235-2.497,3.446-4.475,4.944
			c-1.663,1.318-3.438,2.488-5.306,3.495c-1.429,0.724-4.332,0.799-4.694-0.119c2.759-1.729,6.055-3.92,7.952-6.017
			C231.532,231.783,231.538,230.304,231.601,228.344z"/>
		<path class="st16" d="M219.298,241.639c-0.188,0.635,0.001,1.323,0.487,1.773c1.78,1.163,3.949,1.571,6.03,1.136
			c2.965-0.524,4.538-1.442,5.686-2.497c1.149-1.055,2.753-2.547,4.088-2.909c1.067-0.254,2.071-0.721,2.952-1.373
			c0.381-0.406,0.243-2.122,0.243-2.122L219.298,241.639z"/>
		<path class="st3" d="M237.337,229.024c0.216,0.042,0.383,0.214,0.418,0.431c0.112,0.474,0.281,1.873,0.512,2.615
			c0.375,1.357,0.541,2.763,0.493,4.17c-0.125,0.893-2.135,1.598-3.421,2.16c-1.503,0.746-2.886,1.714-4.101,2.871
			c-1.766,1.451-3.91,2.367-6.18,2.64c-2.297,0.087-4.925-0.531-5.568-1.567c-0.799-1.286-0.256-2.079,3.077-3.82
			c0.624-0.331,2.834-1.779,3.583-2.303c2.029-1.411,4.014-3.339,4.869-5.718c0.061-0.29,0.222-0.549,0.456-0.73
			c0.203-0.1,0.433-0.133,0.655-0.094c0.574,0.051,1.136,0.192,1.667,0.418c0.468,0.193,1.13,0.418,1.149,1.005
			c0.001,0.212-0.033,0.423-0.1,0.624c-0.037,0.125-0.062,0.287,0.044,0.35s0.231,0,0.318-0.106c0.32-0.356,0.61-0.738,0.868-1.142
			c0.149-0.21,0.32-0.403,0.512-0.574c0.175-0.156,0.412-0.237,0.568-0.406C237.322,229.608,237.387,229.312,237.337,229.024z"/>
		<path class="st14" d="M237.337,229.024c0.216,0.042,0.383,0.214,0.418,0.431c0.112,0.474,0.281,1.873,0.512,2.615
			c0.375,1.357,0.541,2.763,0.493,4.17c-0.125,0.893-2.135,1.598-3.421,2.16c-1.503,0.746-2.886,1.714-4.101,2.871
			c-1.766,1.451-3.91,2.367-6.18,2.64c-2.297,0.087-4.925-0.531-5.568-1.567c-0.799-1.286-0.256-2.079,3.077-3.82
			c0.624-0.331,2.834-1.779,3.583-2.303c2.029-1.411,4.014-3.339,4.869-5.718c0.061-0.29,0.222-0.549,0.456-0.73
			c0.203-0.1,0.433-0.133,0.655-0.094c0.574,0.051,1.136,0.192,1.667,0.418c0.468,0.193,1.13,0.418,1.149,1.005
			c0.001,0.212-0.033,0.423-0.1,0.624c-0.037,0.125-0.062,0.287,0.044,0.35s0.231,0,0.318-0.106c0.32-0.356,0.61-0.738,0.868-1.142
			c0.149-0.21,0.32-0.403,0.512-0.574c0.175-0.156,0.412-0.237,0.568-0.406C237.322,229.608,237.387,229.312,237.337,229.024z"/>
		<path class="st25" d="M227.1,238.737c-2.079,0.949-1.155,1.298-0.562,1.361s4.07-2.197,6.167-4.026s3.52-3.932,4.332-4.632
			c0.306-0.262,0.624-0.581,0.918-0.874c-0.081-0.462-0.144-0.886-0.2-1.111c-0.035-0.217-0.202-0.389-0.418-0.431
			c0.043,0.28-0.022,0.565-0.181,0.799c-0.156,0.169-0.393,0.25-0.568,0.406c-0.192,0.172-0.363,0.364-0.512,0.574
			c-0.257,0.404-0.548,0.786-0.868,1.142C233.467,234.386,229.179,237.788,227.1,238.737z"/>
		<path class="st1" d="M226.676,239.773c0.048,0,0.095-0.018,0.131-0.05c0.079-0.084,0.079-0.215,0-0.3
			c-1.064-0.998-2.506-1.489-3.957-1.348c-0.114,0.027-0.184,0.142-0.157,0.256c0.024,0.1,0.117,0.169,0.219,0.162
			c1.311-0.115,2.61,0.324,3.583,1.211C226.538,239.759,226.608,239.785,226.676,239.773z"/>
		<path class="st1" d="M228.474,238.581c0.048-0.001,0.094-0.019,0.131-0.05c0.083-0.083,0.083-0.217,0-0.3
			c-1.062-1-2.505-1.492-3.957-1.348c-0.115,0.019-0.194,0.128-0.175,0.243c0.022,0.114,0.129,0.19,0.243,0.175
			c1.309-0.116,2.607,0.323,3.577,1.211C228.337,238.564,228.406,238.59,228.474,238.581z"/>
		<path class="st1" d="M230.271,237.382c0.048-0.001,0.094-0.019,0.131-0.05c0.083-0.083,0.083-0.217,0-0.3
			c-1.062-0.996-2.502-1.487-3.951-1.348c-0.115,0.019-0.194,0.128-0.175,0.243c0.016,0.113,0.12,0.191,0.233,0.175
			c0.002,0,0.003,0,0.005-0.001c1.309-0.116,2.607,0.323,3.577,1.211C230.135,237.366,230.203,237.392,230.271,237.382z"/>
		<path class="st1" d="M231.925,236.084c0.048,0,0.095-0.018,0.131-0.05c0.079-0.084,0.079-0.215,0-0.3
			c-1.064-0.998-2.506-1.489-3.957-1.348c-0.113,0.015-0.192,0.119-0.177,0.232c0.001,0.004,0.001,0.008,0.002,0.012
			c0.019,0.113,0.124,0.19,0.237,0.175c1.311-0.115,2.61,0.324,3.583,1.211C231.787,236.07,231.857,236.096,231.925,236.084z"/>
		<path class="st1" d="M233.548,234.76c0.046-0.002,0.09-0.019,0.125-0.05c0.081-0.08,0.082-0.21,0.002-0.291
			c-0.001-0.001-0.001-0.001-0.002-0.002c-1.154-1.094-2.748-1.594-4.319-1.355c-0.114,0.019-0.191,0.127-0.172,0.24
			c0.019,0.114,0.127,0.191,0.24,0.172c1.427-0.209,2.873,0.238,3.932,1.217C233.402,234.749,233.476,234.775,233.548,234.76z"/>
		<path class="st26" d="M249.078,215.822l9.475-0.206c-0.119,6.323-1.099,13.352-1.248,19.288c-0.031,1.117,0.056,8.676-0.356,10.98
			c-0.624,3.458-4.719,3.002-4.944,0.936c-0.225-2.066,0.218-10.898,0.206-11.804c0-3.808-1.785-10.231-2.746-17.059
			C249.428,217.626,249.122,216.147,249.078,215.822z"/>
		<path class="st16" d="M250.476,248.268c-0.075,2.029,0.106,3.396,0.712,4.65c0.624,1.21,1.987,1.844,3.314,1.542
			c1.404-0.212,3.246-0.974,3.808-2.678c0.504-1.549,0.664-3.189,0.468-4.806L250.476,248.268z"/>
		<path class="st3" d="M257.336,234.174c0.562,0.1,0.462,2.828,0.524,5.574c0.069,2.94,0.824,4.226,0.899,6.641
			c0.094,2.759-0.169,3.964-1.28,5.518c-1.111,1.554-4.65,2.846-6.086,0.325c-1.173-2.054-1.024-4.195-0.624-6.904
			c0.382-2.288,0.647-4.595,0.793-6.91c0.094-2.054,0.144-4.045,0.655-4.22c0,0.3,0,0.687,0,0.98c0,0.293-0.044,1.342,0.275,1.379
			c0.047-0.253,0.072-0.51,0.075-0.768c-0.003-0.227,0.075-0.448,0.218-0.624c0.189-0.142,0.419-0.219,0.655-0.218
			c0.563-0.068,1.13-0.106,1.698-0.112c0.281-0.001,0.563,0.014,0.843,0.044c0.244,0.017,0.482,0.076,0.705,0.175
			c0.135,0.055,0.238,0.167,0.281,0.306c0.019,0.103,0.019,0.209,0,0.312c-0.025,0.189-0.025,0.38,0,0.568
			c0,0.081,0.056,0.181,0.137,0.175c0.081-0.006,0.1-0.094,0.106-0.156c0.037-0.331,0-0.574,0.037-0.961c0-0.175,0-0.418,0-0.593
			S257.33,234.355,257.336,234.174z"/>
		<path class="st14" d="M257.336,234.174c0.562,0.1,0.462,2.828,0.524,5.574c0.069,2.94,0.824,4.226,0.899,6.641
			c0.094,2.759-0.169,3.964-1.28,5.518c-1.111,1.554-4.65,2.846-6.086,0.325c-1.173-2.054-1.024-4.195-0.624-6.904
			c0.382-2.288,0.647-4.595,0.793-6.91c0.094-2.054,0.144-4.045,0.655-4.22c0,0.3,0,0.687,0,0.98c0,0.293-0.044,1.342,0.275,1.379
			c0.047-0.253,0.072-0.51,0.075-0.768c-0.003-0.227,0.075-0.448,0.218-0.624c0.189-0.142,0.419-0.219,0.655-0.218
			c0.563-0.068,1.13-0.106,1.698-0.112c0.281-0.001,0.563,0.014,0.843,0.044c0.244,0.017,0.482,0.076,0.705,0.175
			c0.135,0.055,0.238,0.167,0.281,0.306c0.019,0.103,0.019,0.209,0,0.312c-0.025,0.189-0.025,0.38,0,0.568
			c0,0.081,0.056,0.181,0.137,0.175c0.081-0.006,0.1-0.094,0.106-0.156c0.037-0.331,0-0.574,0.037-0.961c0-0.175,0-0.418,0-0.593
			S257.33,234.355,257.336,234.174z"/>
		<path class="st25" d="M256.793,247.538c-0.087,0.986,0.918,0.749,1.099-0.624c0.181-1.373-0.268-4.763-0.031-7.153
			c-0.062-2.746,0.037-5.474-0.524-5.574c0,0.037,0,0.069,0,0.106l-0.056,1.386c0,0.2,0,0.381-0.031,0.593
			c-0.175,2.01-0.268,5.917-0.275,7.771C256.975,245.21,256.914,246.376,256.793,247.538z"/>
		<path class="st25" d="M252.842,247.556c-0.127-1.165-0.194-2.336-0.2-3.508c0-1.841-0.137-5.705-0.331-7.728
			c-0.072-0.376-0.102-0.759-0.087-1.142c0-0.275,0-0.624,0-0.918c-0.003-0.021-0.003-0.042,0-0.062
			c-0.368,0.137-0.499,1.248-0.574,2.59c0,0.799,0,1.785,0.087,2.984c0.262,2.384-0.162,5.786,0,7.172
			S252.936,248.568,252.842,247.556z"/>
		<path class="st1" d="M252.474,247.625h0.081c1.411-0.503,2.951-0.514,4.369-0.031c0.108,0.035,0.225-0.02,0.268-0.125
			c0.038-0.109-0.017-0.228-0.125-0.268c-1.518-0.538-3.176-0.538-4.694,0c-0.106,0.046-0.156,0.168-0.112,0.275
			C252.29,247.568,252.377,247.629,252.474,247.625z"/>
		<path class="st1" d="M252.212,245.447c0.022,0.006,0.046,0.006,0.069,0c1.597-0.504,3.309-0.515,4.912-0.031
			c0.107,0.04,0.225-0.014,0.265-0.121c0.001-0.003,0.002-0.007,0.003-0.01c0.037-0.11-0.021-0.23-0.131-0.268
			c-1.693-0.525-3.508-0.512-5.193,0.037c-0.107,0.041-0.163,0.16-0.125,0.268C252.046,245.401,252.126,245.451,252.212,245.447z"/>
		<path class="st1" d="M257.255,243.356c0.082-0.001,0.155-0.05,0.187-0.125c0.049-0.105,0.005-0.23-0.1-0.281
			c-1.667-0.644-3.514-0.644-5.181,0c-0.105,0.043-0.155,0.163-0.112,0.268c0.043,0.105,0.162,0.157,0.268,0.119
			c0,0,2.572-1.024,4.85,0C257.195,243.35,257.225,243.356,257.255,243.356z"/>
		<path class="st1" d="M257.293,241.427c0.117-0.003,0.209-0.101,0.206-0.218c-0.002-0.076-0.045-0.145-0.112-0.181
			c-1.676-0.758-3.594-0.771-5.281-0.037c-0.105,0.051-0.149,0.176-0.1,0.281c0.053,0.102,0.177,0.144,0.281,0.094
			c1.575-0.665,3.355-0.649,4.919,0.044C257.233,241.421,257.263,241.427,257.293,241.427z"/>
		<path class="st1" d="M257.33,239.255c0.078,0,0.15-0.043,0.187-0.112c0.053-0.101,0.013-0.225-0.088-0.278
			c-0.002-0.001-0.004-0.002-0.006-0.003c-2.497-1.248-5.212-0.037-5.324,0c-0.105,0.051-0.149,0.176-0.1,0.281
			c0.045,0.105,0.166,0.153,0.271,0.108c0.001-0.001,0.003-0.001,0.004-0.002c0,0,2.634-1.167,4.962,0
			C257.266,239.259,257.299,239.261,257.33,239.255z"/>
		<path class="st7" d="M254.577,154.314c3.377,9.238,3.439,14.981,2.902,24.693c-0.493,8.895-1.298,16.728-1.298,16.728
			c0.137,1.579,2.347,4.65,2.653,11.629c0.11,4.908-0.098,9.818-0.624,14.7c0,0-4.369,1.61-8.065,0.031
			c0,0-3.851-16.678-4.912-24.837c-0.924-7.122-2.278-15.53-2.278-15.53l-2.416,15.53c0.344,2.349,0.469,4.725,0.375,7.097
			c-0.312,3.795-2.16,13.988-2.16,13.988s-4.588,1.654-7.709-1.092c0,0-0.949-15.28-1.404-21.06
			c-0.624-7.746-0.481-28.981,1.336-39.861L254.577,154.314z"/>
		<path class="st16" d="M242.961,181.71l-1.654-12.865c0,0-6.142-0.799-8.913-3.396c1.618,2.512,4.269,4.175,7.234,4.538
			l2.26,12.009l-1.342,15.243L242.961,181.71z"/>
		<path class="st6" d="M244.59,134.415l0.125-0.056c7.896-3.745,11.067-12.484,10.68-20.786c-0.07-2.64-0.617-5.245-1.617-7.69
			c-1.017-2.453-2.759-4.538-4.994-5.974c-1.737-1.025-3.697-1.614-5.711-1.717c-1.829-0.119-4.195-0.087-5.917,0.624
			c-0.529,0.262-1.146,0.282-1.692,0.056c-0.614-0.14-1.246-0.178-1.873-0.112c-1.705,0.232-3.249,1.13-4.294,2.497
			c-1.454,1.791-1.629,4.469-1.13,6.641c0.237,1.005,1.635,2.497,1.579,3.427c-0.087,1.392-1.099,2.497-2.21,3.695
			c-1.111,1.198-2.341,2.097-2.878,3.864c-0.462,1.517-0.543,4.731,2.853,5.967c-4.944,6.535-0.069,10.081,2.628,11.017
			c1.8,0.635,3.718,0.868,5.618,0.68C238.773,136.213,241.831,135.701,244.59,134.415z"/>
		<path class="st26" d="M227.519,145.513c2.909-2.99,8.158-9.762,8.158-9.762l2.971-10.287c0.075,0-1.511,0.031-1.991,0
			c-3.208,0.212-4.157,0.487-6.155,2.672c-1.585,1.735-7.634,9.987-9.737,12.777l-5.574-7.103c-1.336-2.022-1.124-4.288-1.816-5.936
			c-0.693-1.648-1.816-2.384-2.715-3.876c-0.899-1.492-1.111-2.497-1.873-1.704c-0.762,0.793,0.112,2.821,0.225,3.29
			s1.248,1.873-0.624,1.142c-1.873-0.73-4.788-4.163-5.537-4.869c-0.749-0.705-1.142,0.387-0.974,1.248
			c0.169,0.861-0.624,2.803-0.343,4.226c0.184,1.425,0.892,2.731,1.985,3.664c1.361,1.367,4.675,3.04,5.974,4.831
			c1.298,1.791,4.064,7.359,5.761,10.717c2.147,4.263,3.982,5.668,6.398,4.232C224.067,149.34,226.426,146.618,227.519,145.513z"/>
		<path class="st27" d="M220.765,140.919c1.06,0.999,1.771,2.312,2.029,3.745c0,0,0.624-2.06-1.548-4.369L220.765,140.919z"/>
		<path class="st3" d="M231.295,143.609c-3.945-3.246-2.647-7.49-1.205-10.33c2.884-5.699,5.88-7.94,7.128-7.915l7.859,0.069
			c3.745,0.512,6.66,0.256,7.565,0.474c2.31,0.543,2.359,2.447,2.447,4.906c0.1,2.697,0.387,2.409-0.318,6.866
			c0,0-1.067,3.452-1.486,4.994s-1.205,3.939-0.568,6.435c0.243,0.961,0.893,1.873,1.873,4.563c0.87,2.186,1.541,4.447,2.004,6.754
			c0,0-5.387,4.994-16.579,3.383c-8.227-1.174-9.844-3.876-9.844-3.876l1.542-9.606
			C231.507,146.949,231.451,145.732,231.295,143.609z"/>
		<path class="st8" d="M236.413,142.761c0,0,3.227,2.597,6.985,1.336c2.147-0.634,3.805-2.347,4.369-4.513
			c0,0,0.318,4.276-4.413,5.618C240.756,146.006,237.937,145.015,236.413,142.761z"/>
		<path class="st26" d="M264.596,117.524c-1.673-2.085-6.242-7.297-7.085-8.339c-0.518-0.658-1.197-1.17-1.972-1.486
			c-0.689-0.252-1.315-0.65-1.835-1.167c-0.325-0.318-1.03-1.673-1.317-2.029c-0.844-1.088-1.858-2.032-3.002-2.796
			c-1.323-0.93-2.578-1.361-3.939-2.241c-0.799-0.518-1.773-1.036-0.899-1.91c0.271-0.276,0.619-0.465,0.999-0.543
			c1.873-0.35,3.858,0.237,6.18,0.843c0.996,0.253,1.977,0.559,2.94,0.918c0.556,0.183,1.08,0.45,1.554,0.793
			c0.568,0.538,1.037,1.172,1.386,1.873c1.086,1.773,3.57,2.959,5.118,4.313c1.81,1.592,3.595,2.921,5.661,4.675
			c2.058,1.666,3.94,3.538,5.618,5.587c1.248,1.685,0.893,2.697,0.381,3.446c-2.578,3.801-8.32,8.115-10.362,9.8
			c-2.178,1.798-3.708,2.921-5.655,4.663c-1.368,1.295-2.661,2.669-3.87,4.113c-0.25,0.325-0.695,0.427-1.061,0.243
			c-2.253-1.248-3.745-7.49-2.01-11.367c0.443-0.992,0.905-1.03,0.905-1.03c3.558-2.497,12.265-8.333,12.265-8.333"/>
		<path class="st27" d="M264.596,117.524c1.049,1.336,2.459,2.343,4.064,2.902c0,0-2.153,0.512-5.043-2.178L264.596,117.524z"/>
		<path class="st26" d="M232.5,113.461c0.037,6.198,2.016,7.765,3.015,8.221c0.999,0.456,2.952,0.225,4.844-0.056l-0.062,3.745
			c0,0-2.222,2.241-2.085,3.945c0.137,1.704,3.389,1.96,5.861,0.337c1.359-0.903,2.595-1.98,3.677-3.202
			c0.205-0.238,0.32-0.541,0.325-0.855l0.15-8.739c0,0,1.017,1.117,2.871-0.106c1.589-0.97,2.09-3.045,1.12-4.633
			c-0.053-0.087-0.111-0.172-0.172-0.254c-0.992-0.958-2.573-0.93-3.53,0.062c-0.097,0.101-0.186,0.209-0.265,0.325
			c-0.568,1.061-0.518,1.804-1.248,1.679c-0.73-0.125-0.799-0.955-0.849-1.554c-0.05-0.599-0.031-0.786-0.075-1.567
			c-1.835-0.393-3.745-2.946-3.939-4.806c-1.24,0.611-2.607,0.919-3.989,0.899c-2.047-0.144-3.121-0.549-4.113-2.035
			c-0.246,0.337-0.44,0.71-0.574,1.105c-0.282,0.789-0.491,1.601-0.624,2.428C232.592,110.075,232.479,111.767,232.5,113.461z"/>
		<path class="st27" d="M240.358,121.625c1.997-0.225,6.117-1.33,6.785-2.94c-0.271,0.815-0.785,1.527-1.473,2.041
			c-1.248,1.03-5.331,2.141-5.331,2.141L240.358,121.625z"/>
		<path class="st28" d="M238.348,118.286c-0.01,0.451,0.347,0.826,0.799,0.836s0.826-0.347,0.836-0.799
			c0.01-0.451-0.347-0.826-0.799-0.836c-0.002,0-0.004,0-0.006,0C238.729,117.48,238.359,117.837,238.348,118.286z"/>
		<path class="st16" d="M239.391,112.188c-0.013,0.472,0.36,0.865,0.832,0.878c0.472,0.013,0.865-0.36,0.878-0.832
			c0.012-0.457-0.337-0.842-0.792-0.876c-0.482-0.025-0.893,0.346-0.917,0.828C239.391,112.186,239.391,112.187,239.391,112.188z"/>
		<path class="st16" d="M233.605,111.819c-0.039,0.433,0.28,0.815,0.712,0.854c0.004,0,0.008,0.001,0.012,0.001
			c0.411,0.045,0.781-0.252,0.826-0.663c0.003-0.031,0.005-0.061,0.004-0.092c0.054-0.427-0.248-0.818-0.675-0.873
			c-0.427-0.054-0.818,0.248-0.873,0.675C233.607,111.754,233.605,111.787,233.605,111.819L233.605,111.819z"/>
		<polygon class="st27" points="237.606,111.014 236.988,116.189 234.335,115.09 		"/>
		<path class="st16" d="M242.493,109.953l-1.542-1.467c-0.403,0.442-0.383,1.123,0.044,1.542c0.42,0.394,1.08,0.372,1.473-0.048
			C242.477,109.971,242.485,109.962,242.493,109.953z"/>
		<path class="st16" d="M234.778,108.012l-1.71,1.292c0.323,0.473,0.967,0.594,1.44,0.272c0.013-0.009,0.026-0.019,0.039-0.028
			C235.019,109.178,235.121,108.504,234.778,108.012z"/>
	</g>
</g>
</svg>
