<?xml version="1.0" encoding="UTF-8"?>
<svg xmlns="http://www.w3.org/2000/svg" id="Layer_2" data-name="Layer 2" viewBox="0 0 100 100" width="512" height="512"><path id="Database" d="M56.71,31.56c-2.77,0-2.77-4.35,0-4.35H76.26c2.77,0,2.77,4.35,0,4.35ZM22.37,17.64a2.13,2.13,0,0,1,0-4.25h13a2.13,2.13,0,1,1,0,4.25Zm30.3,50.58H75.2A4.83,4.83,0,0,1,80,73v6.7a4.74,4.74,0,0,1-4.79,4.67H52.67a4.74,4.74,0,0,1-4.79-4.67V73a4.77,4.77,0,0,1,4.79-4.78ZM75.2,72.58H52.67a.49.49,0,0,0-.54.42v6.7a.49.49,0,0,0,.54.42H75.2c.21,0,.53-.21.53-.42V73a.48.48,0,0,0-.53-.42ZM14.4,90.64H84.24a1.3,1.3,0,0,0,1.38-1.17l5.1-45.69a1.31,1.31,0,0,0-1.38-1.48H59c-7.65,0-2.76,12.22-14,12.22H10.68A1.26,1.26,0,0,0,9.3,56L13,89.47a1.23,1.23,0,0,0,1.38,1.17ZM84.24,95H14.4a5.72,5.72,0,0,1-5.63-5.1L5,56.53a5.71,5.71,0,0,1,5.53-6.37.78.78,0,0,0,.85-.85V7.13A2.14,2.14,0,0,1,13.55,5H74.78A2.13,2.13,0,0,1,76.9,7.13v8.6a.84.84,0,0,0,.85.85h3.19a8.44,8.44,0,0,1,5.32,2,6.91,6.91,0,0,1,2.23,5.1V37.09a.84.84,0,0,0,.85.85A5.75,5.75,0,0,1,95,44.21L89.87,89.9A5.73,5.73,0,0,1,84.24,95ZM16.63,50.16h8.93a.84.84,0,0,0,.85-.85V35.71a2.31,2.31,0,0,1,.74-1.7L44.27,17.22a2,2,0,0,1,1.49-.53h26a.94.94,0,0,0,.85-1V10.21a.94.94,0,0,0-.85-1H16.63a1,1,0,0,0-1,1v39.1a.87.87,0,0,0,1,.85Zm14.88,0H45c7.44,0,2.66-12.22,14-12.22H83.39a.84.84,0,0,0,.85-.85V23.7a2.66,2.66,0,0,0-.85-1.91,3.81,3.81,0,0,0-2.45-.85H48.41a.78.78,0,0,0-.85.85V31a7.34,7.34,0,0,1-7.33,7.33H31.51a.92.92,0,0,0-.85.85v10.1a.84.84,0,0,0,.85.85Zm3.72-16h5A3.15,3.15,0,0,0,43.31,31V26.25a.89.89,0,0,0-1.49-.64l-7.12,7a.86.86,0,0,0,.53,1.48Z"/></svg>
